<svg width="309" height="610" viewBox="0 0 309 610" fill="none" xmlns="http://www.w3.org/2000/svg">
<g opacity="0.4">
<path d="M134.109 609.385C136.422 537.552 172.878 497.936 247.331 487.146C170.026 479.515 136.73 436.662 127.558 364.212C116.151 436.277 83.0866 480.517 0.463242 478.976C32.449 508.187 73.5295 498.321 91.5648 521.444C109.369 544.258 114.07 577.168 124.552 605.685C127.712 606.919 130.873 608.152 134.033 609.308L134.109 609.385Z" fill="#FDC992"/>
<path d="M134.109 245.173C136.422 173.34 172.878 133.724 247.331 122.933C170.026 115.303 136.73 72.4496 127.558 0C116.151 72.0642 83.0866 116.305 0.463242 114.763C32.449 143.974 73.5295 134.109 91.5648 157.231C109.369 180.045 114.07 212.956 124.552 241.473C127.712 242.706 130.873 243.94 134.033 245.096L134.109 245.173Z" fill="#FDC992"/>
<path d="M247.637 266.291C235.049 293.935 213.211 314.873 182.124 329.106C216.268 338.201 237.926 356.468 246.635 389.532C255.653 356.699 274.999 337.43 308.911 329.646C274.228 320.551 253.495 300.666 247.637 266.291Z" fill="#FDC992"/>
</g>
</svg>
