<svg width="48" height="49" viewBox="0 0 48 49" fill="none" xmlns="http://www.w3.org/2000/svg">
<rect width="48" height="49" rx="7" fill="#E5F9FF"/>
<path d="M32.807 18.8846C32.247 20.2346 31.777 21.6346 31.107 22.9246C30.387 24.3146 29.457 25.5947 28.647 26.9347C28.337 27.4547 28.087 28.0246 27.337 27.6446C26.637 27.2946 26.117 26.7246 26.537 25.9546C27.197 24.7246 27.957 23.5347 28.787 22.4047C29.987 20.7647 30.467 19.0146 29.917 17.0246C28.997 13.6746 25.457 11.8446 21.827 12.8546C18.687 13.7246 16.677 17.1346 17.587 20.2246C17.837 21.0746 18.417 21.8247 18.887 22.5947C19.507 23.6147 20.197 24.5947 20.817 25.6247C21.327 26.4647 21.047 27.1846 20.247 27.6146C19.387 28.0846 19.117 27.3246 18.777 26.7646C18.087 25.6446 17.397 24.5146 16.667 23.4146C13.947 19.3546 14.587 14.9646 18.357 11.9446C22.007 9.02463 27.067 9.43464 30.167 12.8946C31.657 14.5546 32.527 16.4746 32.477 18.7646C32.587 18.8046 32.697 18.8546 32.807 18.8946V18.8846Z" fill="#00AFDF"/>
<path d="M23.687 30.4446C24.917 30.4446 26.147 30.4646 27.387 30.4446C28.227 30.4346 28.767 30.8046 28.787 31.6446C28.807 32.5346 28.317 32.9946 27.387 32.9846C25.007 32.9646 22.627 32.9847 20.247 32.9647C19.367 32.9647 18.717 32.6646 18.747 31.6046C18.777 30.5846 19.387 30.4047 20.247 30.4347C21.397 30.4747 22.547 30.4346 23.697 30.4446H23.687Z" fill="#00AFDF"/>
<path d="M23.657 38.1645C22.917 38.1645 22.177 38.1945 21.447 38.1645C20.607 38.1245 19.907 37.6446 20.017 36.8146C20.077 36.3446 20.787 35.6345 21.247 35.5945C22.867 35.4445 24.517 35.4845 26.147 35.5745C26.927 35.6145 27.587 36.0445 27.487 37.0145C27.397 37.8945 26.747 38.1445 25.997 38.1745C25.217 38.2045 24.437 38.1745 23.657 38.1745V38.1645Z" fill="#00AFDF"/>
</svg>
