<svg width="25" height="25" viewBox="0 0 25 25" fill="none" xmlns="http://www.w3.org/2000/svg">
<path d="M22.3534 19.0024C22.3534 19.3624 22.2734 19.7324 22.1034 20.0924C21.9334 20.4524 21.7134 20.7924 21.4234 21.1124C20.9334 21.6524 20.3934 22.0424 19.7834 22.2924C19.1834 22.5424 18.5334 22.6724 17.8334 22.6724C16.8134 22.6724 15.7234 22.4324 14.5734 21.9424C13.4234 21.4524 12.2734 20.7924 11.1334 19.9624C9.98342 19.1224 8.89342 18.1924 7.85342 17.1624C6.82342 16.1224 5.89342 15.0324 5.06342 13.8924C4.24342 12.7524 3.58342 11.6124 3.10342 10.4824C2.62342 9.34236 2.38342 8.25236 2.38342 7.21236C2.38342 6.53236 2.50342 5.88236 2.74342 5.28236C2.98342 4.67236 3.36342 4.11236 3.89342 3.61236C4.53342 2.98236 5.23342 2.67236 5.97342 2.67236C6.25342 2.67236 6.53342 2.73236 6.78342 2.85236C7.04342 2.97236 7.27342 3.15236 7.45342 3.41236L9.77342 6.68236C9.95342 6.93236 10.0834 7.16236 10.1734 7.38236C10.2634 7.59236 10.3134 7.80236 10.3134 7.99236C10.3134 8.23236 10.2434 8.47236 10.1034 8.70236C9.97342 8.93236 9.78342 9.17236 9.54342 9.41236L8.78342 10.2024C8.67342 10.3124 8.62342 10.4424 8.62342 10.6024C8.62342 10.6824 8.63342 10.7524 8.65342 10.8324C8.68342 10.9124 8.71342 10.9724 8.73342 11.0324C8.91342 11.3624 9.22342 11.7924 9.66342 12.3124C10.1134 12.8324 10.5934 13.3624 11.1134 13.8924C11.6534 14.4224 12.1734 14.9124 12.7034 15.3624C13.2234 15.8024 13.6534 16.1024 13.9934 16.2824C14.0434 16.3024 14.1034 16.3324 14.1734 16.3624C14.2534 16.3924 14.3334 16.4024 14.4234 16.4024C14.5934 16.4024 14.7234 16.3424 14.8334 16.2324L15.5934 15.4824C15.8434 15.2324 16.0834 15.0424 16.3134 14.9224C16.5434 14.7824 16.7734 14.7124 17.0234 14.7124C17.2134 14.7124 17.4134 14.7524 17.6334 14.8424C17.8534 14.9324 18.0834 15.0624 18.3334 15.2324L21.6434 17.5824C21.9034 17.7624 22.0834 17.9724 22.1934 18.2224C22.2934 18.4724 22.3534 18.7224 22.3534 19.0024Z" stroke="#061B2D" stroke-width="1.5" stroke-miterlimit="10"/>
<path d="M18.8834 9.67236C18.8834 9.07236 18.4134 8.15236 17.7134 7.40236C17.0734 6.71236 16.2234 6.17236 15.3834 6.17236" stroke="#061B2D" stroke-width="1.5" stroke-linecap="round" stroke-linejoin="round"/>
<path d="M22.3834 9.67236C22.3834 5.80236 19.2534 2.67236 15.3834 2.67236" stroke="#061B2D" stroke-width="1.5" stroke-linecap="round" stroke-linejoin="round"/>
</svg>
