<svg width="48" height="49" viewBox="0 0 48 49" fill="none" xmlns="http://www.w3.org/2000/svg">
<rect width="48" height="49" rx="7" fill="#E5F9FF"/>
<path d="M23.99 38.41C16.15 38.39 10 32.07 10 24.04C10 16.42 16.39 10 23.97 10C31.75 10 38.06 16.36 38.03 24.17C38 31.99 31.65 38.42 23.98 38.41H23.99ZM12.6 24.09C12.23 30.89 18.07 35.8 24.11 35.75C30.58 35.7 35.26 30.77 35.39 24.1C35.52 17.54 29.96 12.73 24.11 12.7C16.74 12.66 12.24 18.88 12.6 24.09Z" fill="#00AFDF"/>
<path d="M25.44 20.1101C25.5 22.5 25.89 24.1701 28.32 25.0601C28.85 25.2501 29.32 25.6401 29.78 25.9701C30.34 26.3701 30.46 26.9001 30.05 27.4701C29.65 28.0301 29.22 28.2701 28.49 27.8801C27.04 27.1001 25.48 26.5201 24.07 25.6901C23.48 25.3401 22.8 24.5801 22.76 23.9701C22.58 21.6101 22.64 19.2401 22.62 16.8701C22.62 16.6301 22.62 16.2801 22.76 16.1501C23.16 15.7901 23.65 15.2701 24.08 15.3001C24.49 15.3201 25.15 15.8901 25.22 16.3101C25.42 17.4901 25.39 18.7001 25.45 20.1101H25.44Z" fill="#00AFDF"/>
</svg>
