<svg width="48" height="49" viewBox="0 0 48 49" fill="none" xmlns="http://www.w3.org/2000/svg">
<rect width="48" height="49" rx="7" fill="#E5F9FF"/>
<g clip-path="url(#clip0_76_3785)">
<path d="M24.46 37.78C19.97 37.76 16.44 35.33 14.83 31.43C13.21 27.5 13.95 23.77 17.11 20.79C19.64 18.41 21.88 15.89 22.81 12.41C22.96 11.86 23.7 11.46 24.16 10.99C24.6 11.44 25.28 11.83 25.42 12.36C26.35 15.89 28.66 18.41 31.21 20.82C36.35 25.7 34.33 33.01 29.54 36.2C27.84 37.33 26.02 37.73 24.46 37.77V37.78ZM24.14 16.8C22.34 18.75 20.37 20.83 18.46 22.97C15.95 25.77 15.84 29.43 18.13 32.37C20.45 35.35 24.26 36.22 27.53 34.52C31.76 32.33 33.1 26.98 30.19 23.49C28.23 21.13 26.08 18.94 24.14 16.8Z" fill="#10AFDE"/>
</g>
<defs>
<clipPath id="clip0_76_3785">
<rect width="20.22" height="26.78" fill="white" transform="translate(14 11)"/>
</clipPath>
</defs>
</svg>
