<svg width="56" height="57" viewBox="0 0 56 57" fill="none" xmlns="http://www.w3.org/2000/svg">
<g filter="url(#filter0_d_190_586)">
<circle cx="28" cy="28.6724" r="20" fill="white"/>
</g>
<path d="M35 13.0325V17.8366C34.029 17.872 33.0561 17.7637 32.087 17.9344C30.7398 18.1738 29.9987 19.1667 29.9474 20.5634C29.9018 21.7915 29.9436 23.0237 29.9322 24.2539C29.9322 24.4746 30.0101 24.5058 30.1792 24.5058C31.6234 24.4995 33.0675 24.5016 34.5117 24.5016C34.7682 24.5016 34.8043 24.5474 34.7587 24.8326C34.715 25.1094 34.6656 25.3842 34.6257 25.661C34.5212 26.375 34.4147 27.0869 34.3197 27.8029C34.2304 28.4752 34.0936 29.1413 34.0651 29.822C34.0556 30.0218 34.0005 30.0863 33.8162 30.0842C32.6533 30.0738 31.4904 30.0759 30.3275 30.0738C29.9398 30.0738 29.9398 30.0697 29.9398 30.4964C29.9398 34.8863 29.9398 39.2741 29.9398 43.664C28.7693 43.6661 27.5988 43.6724 26.4283 43.6724C25.7575 43.6724 25.0868 43.664 24.416 43.662C24.4939 43.4996 24.454 43.3227 24.454 43.1541C24.4578 38.8807 24.4578 34.6053 24.4635 30.3319C24.4635 30.1425 24.4198 30.0717 24.2412 30.078C23.9277 30.0905 23.6122 30.0946 23.2968 30.0884C22.2992 30.0676 21.2997 30.078 20.3002 30.0738C20.2128 30.0738 20.1292 30.078 20.057 30.1404C20.0209 30.0842 20 30.026 20 29.951C20.0038 28.1193 20.0076 26.2876 20.0095 24.4579C20.1064 24.4912 20.2033 24.5079 20.3059 24.5058C21.6018 24.5058 22.8997 24.5016 24.1956 24.5099C24.3989 24.5099 24.4635 24.4433 24.4635 24.2144C24.454 22.647 24.4483 21.0796 24.4635 19.5143C24.4673 19.1022 24.5376 18.69 24.6003 18.282C24.6573 17.9136 24.7485 17.5556 24.8588 17.1976C25.1153 16.3608 25.4763 15.5927 26.0065 14.9287C26.6031 14.1815 27.3043 13.6153 28.1689 13.2656C28.8168 13.0054 29.4515 12.7535 30.1488 12.7744C30.2078 12.7744 30.2838 12.7848 30.2667 12.6724H32.6571C32.6324 12.7764 32.6571 12.7931 32.7597 12.7848C33.0827 12.7556 33.402 12.8097 33.7231 12.8659C34.1468 12.943 34.5744 12.9804 35 13.0325Z" fill="#00AFDF"/>
<defs>
<filter id="filter0_d_190_586" x="0" y="0.672363" width="56" height="56" filterUnits="userSpaceOnUse" color-interpolation-filters="sRGB">
<feFlood flood-opacity="0" result="BackgroundImageFix"/>
<feColorMatrix in="SourceAlpha" type="matrix" values="0 0 0 0 0 0 0 0 0 0 0 0 0 0 0 0 0 0 127 0" result="hardAlpha"/>
<feOffset/>
<feGaussianBlur stdDeviation="4"/>
<feComposite in2="hardAlpha" operator="out"/>
<feColorMatrix type="matrix" values="0 0 0 0 0 0 0 0 0 0 0 0 0 0 0 0 0 0 0.14 0"/>
<feBlend mode="normal" in2="BackgroundImageFix" result="effect1_dropShadow_190_586"/>
<feBlend mode="normal" in="SourceGraphic" in2="effect1_dropShadow_190_586" result="shape"/>
</filter>
</defs>
</svg>
