<svg width="174" height="180" viewBox="0 0 174 180" fill="none" xmlns="http://www.w3.org/2000/svg">
<g opacity="0.2">
<path d="M113.073 99.814C101.699 89.4641 93.1235 79.8809 82.7726 72.7157C69.8339 63.7812 69.3222 51.8097 71.3684 39.0714C73.1437 28.1023 77.0252 17.487 79.2218 6.54747C80.6661 -0.647283 84.0064 -1.00117 89.6633 1.88852C110.064 12.2973 131.699 20.3472 150.926 32.8791C181.738 52.93 181.528 88.0193 149.813 106.832C141.598 111.697 145.059 115.648 146.834 120.985C155.5 147.052 142.652 170.847 115.871 178.367C109.041 180.283 101.91 180.961 95.4102 177.895C71.0975 166.454 47.086 154.423 22.6831 143.159C13.1746 138.795 11.4593 134.402 19.8544 127.532C20.9978 126.588 21.8705 125.349 22.9236 124.317C34.0569 113.525 41.0678 95.4794 55.9925 92.5897C70.556 89.7589 87.0755 96.5115 102.752 98.9589C105.16 99.3422 107.597 99.3421 113.043 99.7844L113.073 99.814Z" fill="#10AFDE"/>
<path d="M71.5835 84.9315C62.1494 82.7687 52.8133 79.094 43.7801 80.2756C35.3553 81.3402 31.0234 93.0499 17.8889 96.3028C27.6667 74.5731 25.4726 56.3493 6.6053 41.076C28.0449 47.9706 46.4715 48.5155 61.6541 27.1729C52.101 50.6238 57.1181 68.3608 71.6129 84.9348L71.5835 84.9315Z" fill="#FDC992"/>
</g>
</svg>
