<svg width="25" height="25" viewBox="0 0 25 25" fill="none" xmlns="http://www.w3.org/2000/svg">
<path d="M11.7145 0.67308C14.4361 0.687624 16.3996 1.14627 18.1975 2.18865C19.1725 2.75396 20.0496 3.44047 20.8735 4.24238C22.2817 5.6125 23.2441 7.22601 23.8024 9.05381C24.4779 11.2646 24.6184 13.5123 23.9351 15.7939C23.5601 17.0447 23.0716 18.2044 22.3524 19.2885C20.7174 21.7534 18.4824 23.4057 15.6495 24.1979C12.4095 25.1045 9.30125 24.7099 6.3733 23.0314C6.0021 22.8181 5.65707 22.757 5.2345 22.8772C4.09472 23.2011 2.94428 23.4891 1.79482 23.778C1.36934 23.8847 1.32185 23.8149 1.44106 23.3872C1.77543 22.1849 2.09624 20.9796 2.44127 19.7811C2.50718 19.5523 2.46453 19.3884 2.34629 19.1983C0.109383 15.597 -0.233712 11.8134 1.41005 7.90864C2.1699 6.10315 3.32518 4.56237 4.91563 3.33866C5.95946 2.53579 7.05756 1.87351 8.27584 1.4168C9.58813 0.92519 10.9518 0.656596 11.7145 0.67308ZM7.5974 5.9703C6.55454 5.86267 6.03699 6.62482 5.56984 7.3414C4.9544 8.28584 4.94955 9.36991 5.1841 10.4443C5.46323 11.7242 6.19982 12.7753 6.96742 13.7944C8.41928 15.7231 10.0068 17.5063 12.3154 18.4585C13.4649 18.9326 14.6202 19.3981 15.8656 19.5513C17.5365 19.7569 19.7162 18.7552 19.7104 16.59C19.7094 16.2797 19.6823 16.0169 19.3605 15.8647C18.3981 15.4109 17.4406 14.9445 16.4791 14.4887C16.1341 14.3249 15.8763 14.4238 15.6475 14.736C15.3141 15.1908 14.9429 15.6184 14.5853 16.0557C14.4012 16.2816 14.1821 16.3427 13.8981 16.2322C11.7262 15.3837 10.064 13.9477 8.9 11.9288C8.76043 11.6874 8.75656 11.476 8.94361 11.2656C9.1675 11.0125 9.38169 10.7488 9.61527 10.5044C9.99325 10.1098 10.1415 9.41937 9.85078 8.9869C9.42724 8.35565 9.2712 7.61581 8.95912 6.93996C8.60052 6.16423 8.45901 5.98679 7.5974 5.9703Z" fill="#F4F5FA"/>
<path d="M11.8151 3.17334H11.8229C14.03 3.18514 15.5753 3.55527 16.9781 4.36865C17.7503 4.81637 18.4489 5.36192 19.11 6.00537C20.2216 7.08688 20.9793 8.35849 21.4205 9.80322H21.4215C21.9276 11.4598 22.0514 13.1194 21.6237 14.7944L21.5309 15.1304C21.2284 16.1392 20.8392 17.0577 20.274 17.9097C18.9761 19.8662 17.2125 21.1684 14.9703 21.7954C12.5611 22.4696 10.2554 22.2384 8.06116 21.1089L7.62366 20.8716C7.26303 20.6644 6.89212 20.5768 6.47229 20.6528L6.2887 20.6958C5.4849 20.9242 4.67352 21.1296 3.85608 21.3354C4.09662 20.4624 4.32977 19.5997 4.57874 18.7349C4.62397 18.5778 4.63863 18.4165 4.60803 18.2505C4.57833 18.0896 4.51117 17.9558 4.44299 17.8462C2.66261 14.9794 2.39495 11.997 3.69983 8.89697C4.30082 7.46895 5.21145 6.25537 6.46545 5.29053C7.30612 4.64395 8.17754 4.11936 9.13538 3.76025C10.1969 3.36258 11.2669 3.16056 11.8151 3.17236V3.17334ZM8.40393 6.5874C7.83813 6.54018 7.39561 6.72793 7.04944 7.01807C6.80114 7.22618 6.60243 7.4874 6.43909 7.72705L6.28674 7.95654C5.6697 8.90345 5.68617 9.96511 5.89514 10.9224C6.15344 12.1067 6.83184 13.06 7.47034 13.9077C8.69027 15.5283 10.0815 17.109 12.1364 17.9565C13.0874 18.3489 14.1097 18.7638 15.2242 18.9009C16.0322 19.0003 16.9546 18.8108 17.6862 18.3296C18.4329 17.8384 18.9917 17.0312 18.9889 15.936V15.9351C18.9885 15.8067 18.9859 15.6036 18.9108 15.4067C18.8236 15.1786 18.6573 14.9966 18.4117 14.8804H18.4108C17.6028 14.4994 16.8255 14.1198 16.0114 13.7339C15.7863 13.627 15.5274 13.5794 15.2623 13.6636C15.0094 13.7439 14.8288 13.9202 14.6998 14.0962C14.4326 14.4607 14.1419 14.795 13.8317 15.1743C13.8305 15.1739 13.829 15.1738 13.8278 15.1733C12.1247 14.5081 10.8273 13.3883 9.9137 11.8042C10.0075 11.6976 10.0917 11.601 10.1725 11.5073L10.4381 11.2114C10.6691 10.9701 10.8209 10.651 10.8766 10.3306C10.9319 10.0122 10.8993 9.6374 10.6871 9.32178C10.5442 9.10843 10.4401 8.86701 10.3346 8.58643C10.235 8.32145 10.1242 7.98962 9.98401 7.68604C9.84607 7.38766 9.69505 7.06493 9.42249 6.85693C9.1279 6.63221 8.77258 6.59446 8.40393 6.5874Z" stroke="black"/>
</svg>
