<svg width="56" height="57" viewBox="0 0 56 57" fill="none" xmlns="http://www.w3.org/2000/svg">
<g filter="url(#filter0_d_190_589)">
<circle cx="28" cy="28.6724" r="20" fill="white"/>
</g>
<path d="M21.2712 14.6724H33.7204C33.7749 14.8323 33.9257 14.7959 34.0293 14.7996C34.6617 14.8177 35.2631 14.9958 35.8374 15.223C36.9531 15.6627 37.967 16.286 38.7884 17.1727C39.3862 17.8178 39.915 18.5138 40.2675 19.3297C40.4947 19.8548 40.6746 20.3945 40.8108 20.9524C40.9017 21.3231 40.9671 21.692 40.9817 22.0717C40.9835 22.1281 40.9926 22.1808 41.0707 22.1626V34.5209C41.0107 34.5027 40.9889 34.5336 40.9835 34.5863C40.9199 35.255 40.7254 35.8892 40.4801 36.5107C40.1185 37.4301 39.6424 38.2751 38.9683 39.0129C38.4686 39.5598 37.938 40.0504 37.3038 40.4375C36.5806 40.8772 35.821 41.2225 35.0015 41.4369C34.7634 41.5005 34.5254 41.555 34.2783 41.5659C34.1947 41.5696 34.0348 41.5478 34.1638 41.7222C33.8567 41.7277 33.5496 41.7386 33.2425 41.7386C29.3465 41.7386 25.4488 41.7404 21.5529 41.7386C21.3657 41.7386 21.1785 41.7567 20.9932 41.7113C20.9786 41.6604 20.935 41.6568 20.8932 41.6386C20.6788 41.5496 20.4462 41.5896 20.23 41.5369C19.6449 41.3951 19.0797 41.1862 18.5582 40.89C17.7278 40.4175 16.9101 39.9342 16.2432 39.2128C15.8452 38.7821 15.4709 38.3478 15.1765 37.8463C14.9022 37.3793 14.6641 36.8977 14.4969 36.3726C14.3879 36.031 14.2916 35.6948 14.2135 35.3459C14.1826 35.2114 14.2135 35.0243 14.0572 34.9243C14.0499 34.7462 14.0009 34.5754 14.0009 34.3955C14.0063 30.7122 14.0045 27.0307 14.0063 23.3474C14.0063 22.7404 13.9736 22.1335 14.0572 21.5284C14.1935 21.1886 14.2553 20.827 14.3497 20.4763C14.6895 19.2061 15.371 18.1413 16.2505 17.1909C16.663 16.7439 17.1336 16.3696 17.6497 16.0407C18.1694 15.7099 18.7072 15.4247 19.2778 15.1975C19.8865 14.9558 20.5207 14.8377 21.1676 14.7596C21.2185 14.7541 21.2785 14.7541 21.2658 14.6742L21.2712 14.6724ZM27.5403 39.2091C29.1194 39.2091 30.6967 39.2128 32.2758 39.2055C32.6719 39.2055 33.0662 39.2146 33.4642 39.171C34.1983 39.0928 34.8815 38.8729 35.5393 38.5495C36.1572 38.246 36.6387 37.7754 37.1057 37.2866C37.5818 36.7869 37.918 36.1963 38.1578 35.553C38.4504 34.7699 38.5431 33.9503 38.5431 33.1199C38.5467 29.9635 38.5431 26.8072 38.5449 23.6508C38.5449 23.1875 38.5085 22.7259 38.4631 22.2643C38.3614 21.2377 38.0034 20.3164 37.4074 19.4787C36.8604 18.71 36.1553 18.1286 35.3086 17.7251C34.4763 17.329 33.5805 17.1982 32.6737 17.2C29.0467 17.2127 25.4179 17.1382 21.7909 17.2345C21.4675 17.2436 21.1422 17.2672 20.8387 17.3508C19.1125 17.8324 17.8223 18.8518 17.0518 20.4945C16.7738 21.0868 16.5503 21.7101 16.5467 22.3588C16.5267 25.9513 16.5485 29.5438 16.5267 33.1363C16.523 33.8613 16.623 34.5627 16.7883 35.2532C16.8919 35.6875 17.1191 36.0927 17.3553 36.4798C17.6551 36.9722 18.0458 37.3847 18.4601 37.7881C19.0543 38.3678 19.7539 38.7276 20.5244 38.9565C21.0877 39.1237 21.671 39.2073 22.2652 39.2073C24.0242 39.2019 25.7831 39.2073 27.5403 39.2073V39.2091Z" fill="#00AFDF"/>
<path d="M34.2661 28.0899C34.2988 29.8543 33.7101 31.2444 32.7379 32.4874C32.4126 32.9017 32.0219 33.2596 31.5913 33.5795C30.8753 34.1101 30.0612 34.3935 29.2272 34.6534C28.8474 34.7715 28.4549 34.8206 28.0697 34.8587C27.3501 34.9296 26.6341 34.8405 25.9364 34.637C25.6801 34.5625 25.4203 34.5007 25.1804 34.3735C25.0932 34.3281 25.0096 34.2881 24.9497 34.2082C24.9278 34.1791 24.9242 34.13 24.8552 34.1391C24.5935 34.1718 24.4009 34.0047 24.201 33.8811C23.8594 33.6685 23.4869 33.4777 23.2088 33.196C22.8781 32.8617 22.5292 32.5401 22.2421 32.1548C21.8533 31.6333 21.6297 31.0427 21.3772 30.4576C21.1373 29.9016 21.0319 29.3183 21.0065 28.7223C20.9828 28.1844 20.9501 27.6374 21.0555 27.1068C21.1573 26.5853 21.2863 26.0674 21.4971 25.5713C21.8205 24.81 22.2694 24.1285 22.8472 23.5471C23.4887 22.902 24.2192 22.3768 25.0896 22.0497C25.6947 21.8226 26.3125 21.7027 26.943 21.61C27.3991 21.5428 27.8607 21.5373 28.3095 21.5827C28.742 21.6263 29.1781 21.699 29.6015 21.8408C30.1067 22.0098 30.5809 22.2333 31.0534 22.4695C31.6512 22.7693 32.131 23.22 32.5798 23.7051C32.9305 24.0849 33.2103 24.5156 33.4793 24.9553C33.5883 25.1334 33.6301 25.3442 33.7101 25.5277C33.8027 25.7403 33.8809 25.9602 33.9735 26.1728C34.1171 26.5035 34.1571 26.8615 34.217 27.2104C34.2752 27.5502 34.277 27.8955 34.2679 28.0844L34.2661 28.0899ZM23.3924 28.1608C23.3215 30.6284 25.4312 32.4728 27.5372 32.4801C30.0086 32.4874 31.7494 30.5921 31.8693 28.615C31.9511 27.2904 31.5767 26.1129 30.6082 25.1461C29.6451 24.1849 28.4876 23.796 27.1611 23.9287C25.2931 24.1176 23.3633 25.8475 23.3942 28.1589L23.3924 28.1608Z" fill="#00AFDF"/>
<path d="M33.1334 21.1265C33.0826 20.2379 33.7912 19.5583 34.6053 19.5438C35.543 19.5274 36.2426 20.1198 36.2444 21.0229C36.2462 22.0642 35.6047 22.5675 34.6707 22.6438C33.8821 22.7092 33.1371 21.9279 33.1316 21.1247L33.1334 21.1265Z" fill="#00AFDF"/>
<defs>
<filter id="filter0_d_190_589" x="0" y="0.672363" width="56" height="56" filterUnits="userSpaceOnUse" color-interpolation-filters="sRGB">
<feFlood flood-opacity="0" result="BackgroundImageFix"/>
<feColorMatrix in="SourceAlpha" type="matrix" values="0 0 0 0 0 0 0 0 0 0 0 0 0 0 0 0 0 0 127 0" result="hardAlpha"/>
<feOffset/>
<feGaussianBlur stdDeviation="4"/>
<feComposite in2="hardAlpha" operator="out"/>
<feColorMatrix type="matrix" values="0 0 0 0 0 0 0 0 0 0 0 0 0 0 0 0 0 0 0.14 0"/>
<feBlend mode="normal" in2="BackgroundImageFix" result="effect1_dropShadow_190_589"/>
<feBlend mode="normal" in="SourceGraphic" in2="effect1_dropShadow_190_589" result="shape"/>
</filter>
</defs>
</svg>
