<svg width="48" height="49" viewBox="0 0 48 49" fill="none" xmlns="http://www.w3.org/2000/svg">
<rect width="48" height="49" rx="7" fill="#E5F9FF"/>
<g clip-path="url(#clip0_76_3779)">
<path d="M15.37 32C14.27 33.04 13.76 34.2 13.62 35.57C13.44 37.37 12.94 38.1 12 37.87C10.57 37.52 11.1 36.29 11.1 35.38C11.1 33.28 12.11 31.59 13.5 30.08C13.77 29.79 14.06 29.3 14 28.96C12.88 22.19 16.16 17.4 22.9 16.06C23.96 15.85 25.03 15.71 26.09 15.5C28.69 15 30.9 13.81 32.79 11.93C34.23 10.5 34.85 10.73 35.62 12.59C36.78 15.37 37.52 18.24 37.79 21.22C38.3 26.84 35.95 31.11 31.35 34.19C29.3 35.56 27.04 36.42 24.52 36.65C21.25 36.94 18.75 35.54 16.53 33.38C16.15 33.01 15.84 32.56 15.38 32.01L15.37 32ZM17.52 30.84C18.47 32.24 20.35 33.42 21.95 33.76C27.94 35.02 34.61 30.25 35.34 24.09C35.68 21.25 35.13 18.49 34.21 15.79C34.1 15.45 33.89 15.15 33.66 14.69C30.42 17.14 26.58 17.6 22.93 18.63C22.13 18.85 21.36 19.16 20.6 19.49C17.42 20.84 15.7 23.87 16.11 27.29C16.21 28.13 16.51 28.32 17.33 28.05C20.05 27.17 22.84 26.47 25.06 24.51C25.3 24.3 25.65 24.04 25.92 24.07C26.43 24.12 27.14 24.24 27.35 24.58C27.55 24.9 27.37 25.81 27.06 26.01C25.31 27.17 23.52 28.27 21.65 29.23C20.38 29.89 18.97 30.27 17.51 30.83L17.52 30.84Z" fill="#00AFDF"/>
</g>
<defs>
<clipPath id="clip0_76_3779">
<rect width="26.84" height="26.91" fill="white" transform="translate(11 11)"/>
</clipPath>
</defs>
</svg>
