<svg width="1212" height="494" viewBox="0 0 1212 494" fill="none" xmlns="http://www.w3.org/2000/svg">
<path d="M67.7974 128C149.297 239.5 47.7974 289 77.5327 314C153.439 377.818 161 469 135 492.5" stroke="#FEDAD9" stroke-width="3" stroke-linecap="round" stroke-dasharray="10 10"/>
<circle cx="65.2974" cy="116" r="27" fill="#FEDAD9"/>
<path d="M75.2974 126.75H55.2974C54.8874 126.75 54.5474 126.41 54.5474 126C54.5474 125.59 54.8874 125.25 55.2974 125.25H75.2974C75.7074 125.25 76.0474 125.59 76.0474 126C76.0474 126.41 75.7074 126.75 75.2974 126.75Z" fill="#F0A8AF"/>
<path d="M56.9976 126H55.4976L55.5476 113.97C55.5476 113.12 55.9376 112.33 56.6076 111.81L63.6076 106.36C64.5976 105.59 65.9876 105.59 66.9876 106.36L73.9876 111.8C74.6476 112.32 75.0476 113.13 75.0476 113.97V126H73.5476V113.98C73.5476 113.6 73.3676 113.23 73.0676 112.99L66.0676 107.55C65.6176 107.2 64.9876 107.2 64.5276 107.55L57.5276 113C57.2276 113.23 57.0476 113.6 57.0476 113.98L56.9976 126Z" fill="#F0A8AF"/>
<path d="M70.2974 126.75H60.2974C59.8874 126.75 59.5474 126.41 59.5474 126V116.5C59.5474 115.26 60.5574 114.25 61.7974 114.25H68.7974C70.0374 114.25 71.0474 115.26 71.0474 116.5V126C71.0474 126.41 70.7074 126.75 70.2974 126.75ZM61.0474 125.25H69.5474V116.5C69.5474 116.09 69.2074 115.75 68.7974 115.75H61.7974C61.3874 115.75 61.0474 116.09 61.0474 116.5V125.25Z" fill="#F0A8AF"/>
<path d="M63.2974 122.5C62.8874 122.5 62.5474 122.16 62.5474 121.75V120.25C62.5474 119.84 62.8874 119.5 63.2974 119.5C63.7074 119.5 64.0474 119.84 64.0474 120.25V121.75C64.0474 122.16 63.7074 122.5 63.2974 122.5Z" fill="#F0A8AF"/>
<path d="M66.7974 112.25H63.7974C63.3874 112.25 63.0474 111.91 63.0474 111.5C63.0474 111.09 63.3874 110.75 63.7974 110.75H66.7974C67.2074 110.75 67.5474 111.09 67.5474 111.5C67.5474 111.91 67.2074 112.25 66.7974 112.25Z" fill="#F0A8AF"/>
<path d="M36.2974 51C8.79736 82.5 -19.4026 181.8 25.7974 247C82.2974 328.5 107.797 467.5 81.7974 491" stroke="#E0E3FB" stroke-width="3" stroke-linecap="round" stroke-dasharray="10 10"/>
<circle cx="43.2974" cy="31" r="31" fill="#E0E3FB"/>
<path d="M39.5724 19.55L32.8349 24.8C31.7099 25.675 30.7974 27.5375 30.7974 28.95V38.2125C30.7974 41.1125 33.1599 43.4875 36.0599 43.4875H50.5349C53.4349 43.4875 55.7974 41.1125 55.7974 38.225V29.125C55.7974 27.6125 54.7849 25.675 53.5474 24.8125L45.8224 19.4C44.0724 18.175 41.2599 18.2375 39.5724 19.55Z" stroke="#5E489C" stroke-width="1.5" stroke-linecap="round" stroke-linejoin="round"/>
<path d="M41.4224 38.5H45.1724C47.2349 38.5 48.9224 36.8125 48.9224 34.75V31C48.9224 28.9375 47.2349 27.25 45.1724 27.25H41.4224C39.3599 27.25 37.6724 28.9375 37.6724 31V34.75C37.6724 36.8125 39.3599 38.5 41.4224 38.5Z" stroke="#5E489C" stroke-width="1.5" stroke-linecap="round" stroke-linejoin="round"/>
<path d="M43.2974 27.25V38.5" stroke="#5E489C" stroke-width="1.5" stroke-linecap="round" stroke-linejoin="round"/>
<path d="M37.6724 32.875H48.9224" stroke="#5E489C" stroke-width="1.5" stroke-linecap="round" stroke-linejoin="round"/>
<path d="M1123.3 130C1127.3 216.5 1075.8 263.5 1058.3 321.5C1029.65 416.442 1180.8 441.5 1154.8 465" stroke="#FFEABC" stroke-width="3" stroke-linecap="round" stroke-dasharray="10 10"/>
<circle cx="1124.3" cy="104" r="27" fill="#FFF1D2"/>
<path d="M1114.3 114H1134.3" stroke="#FDC789" stroke-width="1.5" stroke-miterlimit="10" stroke-linecap="round" stroke-linejoin="round"/>
<path d="M1129.3 94H1119.3C1116.3 94 1115.3 95.79 1115.3 98V114H1133.3V98C1133.3 95.79 1132.3 94 1129.3 94Z" stroke="#FDC789" stroke-width="1.5" stroke-miterlimit="10" stroke-linecap="round" stroke-linejoin="round"/>
<path d="M1126.36 107H1122.23C1121.72 107 1121.29 107.42 1121.29 107.94V114H1127.29V107.94C1127.3 107.42 1126.88 107 1126.36 107Z" stroke="#FDC789" stroke-width="1.5" stroke-miterlimit="10" stroke-linecap="round" stroke-linejoin="round"/>
<path d="M1124.3 98V103" stroke="#FDC789" stroke-width="1.5" stroke-miterlimit="10" stroke-linecap="round" stroke-linejoin="round"/>
<path d="M1121.8 100.5H1126.8" stroke="#FDC789" stroke-width="1.5" stroke-miterlimit="10" stroke-linecap="round" stroke-linejoin="round"/>
<path d="M1179.3 62.5C1239.74 121.5 1172.3 239 1160.8 262.5C1117.2 351.574 1117.86 381.5 1143.86 405" stroke="#D4F3FF" stroke-width="3" stroke-linecap="round" stroke-dasharray="10 10"/>
<circle cx="1176.3" cy="36" r="35" fill="#E4F3F9"/>
<path d="M1163.8 48.5H1188.8" stroke="#00B0DF" stroke-width="1.5" stroke-miterlimit="10" stroke-linecap="round" stroke-linejoin="round"/>
<path d="M1164.98 48.5L1165.05 33.4625C1165.05 32.7 1165.41 31.9751 1166.01 31.5001L1174.76 24.6875C1175.66 23.9875 1176.92 23.9875 1177.83 24.6875L1186.58 31.4875C1187.2 31.9625 1187.55 32.6875 1187.55 33.4625V48.5" stroke="#00B0DF" stroke-width="1.5" stroke-miterlimit="10" stroke-linejoin="round"/>
<path d="M1177.55 42.25H1175.05C1174.01 42.25 1173.17 43.0875 1173.17 44.125V48.5H1179.42V44.125C1179.42 43.0875 1178.58 42.25 1177.55 42.25Z" stroke="#00B0DF" stroke-width="1.5" stroke-miterlimit="10" stroke-linejoin="round"/>
<path d="M1173.17 38.1875H1170.67C1169.98 38.1875 1169.42 37.625 1169.42 36.9375V35.0625C1169.42 34.375 1169.98 33.8125 1170.67 33.8125H1173.17C1173.86 33.8125 1174.42 34.375 1174.42 35.0625V36.9375C1174.42 37.625 1173.86 38.1875 1173.17 38.1875Z" stroke="#00B0DF" stroke-width="1.5" stroke-miterlimit="10" stroke-linejoin="round"/>
<path d="M1181.92 38.1875H1179.42C1178.73 38.1875 1178.17 37.625 1178.17 36.9375V35.0625C1178.17 34.375 1178.73 33.8125 1179.42 33.8125H1181.92C1182.61 33.8125 1183.17 34.375 1183.17 35.0625V36.9375C1183.17 37.625 1182.61 38.1875 1181.92 38.1875Z" stroke="#00B0DF" stroke-width="1.5" stroke-miterlimit="10" stroke-linejoin="round"/>
<path d="M1185.05 29.75L1185.01 26H1179.51" stroke="#00B0DF" stroke-width="1.5" stroke-miterlimit="10" stroke-linecap="round" stroke-linejoin="round"/>
</svg>
