<svg width="48" height="49" viewBox="0 0 48 49" fill="none" xmlns="http://www.w3.org/2000/svg">
<rect width="48" height="49" rx="7" fill="#E5F9FF"/>
<path d="M35.3952 21.0393C35.2952 22.8593 35.2352 24.6893 35.0752 26.5093C34.6252 31.5893 31.8352 34.9993 27.4052 37.1493C23.6652 38.9593 23.6352 38.9493 19.8852 37.1293C14.8052 34.6693 12.1552 30.5693 12.0252 24.8793C11.9652 22.1393 12.0352 19.3893 12.0052 16.6493C11.9852 15.2793 12.5952 14.3893 13.8752 14.0893C16.8752 13.3893 19.7052 12.3593 22.2052 10.4893C23.1052 9.80931 24.1552 9.8493 25.0952 10.5393C27.5452 12.3193 30.2852 13.3493 33.2052 14.0593C34.9052 14.4693 35.2352 15.0093 35.2752 16.8093C35.3052 18.2193 35.2752 19.6393 35.2752 21.0493H35.3952V21.0393ZM14.6452 16.6593C14.6452 19.9793 14.4952 23.1793 14.6852 26.3593C14.9452 30.6193 17.6352 33.1893 21.1552 35.1193C22.8152 36.0293 24.3552 36.0993 26.0352 35.1793C28.9452 33.5693 31.6452 31.5693 32.2152 28.1593C32.8352 24.3893 32.7852 20.5093 33.0252 16.6793C29.6452 16.2693 26.9352 15.1393 24.6352 13.1393C23.9552 12.5493 23.4752 12.5793 22.8252 13.1293C20.4752 15.1393 17.7652 16.3593 14.6552 16.6693L14.6452 16.6593Z" fill="#00AFDF"/>
</svg>
