<svg width="48" height="49" viewBox="0 0 48 49" fill="none" xmlns="http://www.w3.org/2000/svg">
<rect width="48" height="49" rx="7" fill="#E5F9FF"/>
<path d="M25.1802 11.0117C26.3802 11.0417 27.2802 11.5117 27.5502 12.7617C28.0302 14.9517 28.5002 17.1317 28.8802 19.3417C29.1202 20.7217 29.7602 21.4117 31.1802 21.6217C33.2102 21.9217 35.2202 22.3817 37.2202 22.8817C38.2702 23.1417 39.2602 23.6517 39.3702 24.9717C39.4902 26.4217 39.0002 27.2317 37.5002 27.6117C35.3502 28.1617 33.1702 28.6317 30.9902 29.0317C29.7702 29.2517 29.1402 29.8117 28.9402 31.0817C28.6202 33.1317 28.2102 35.1617 27.7402 37.1817C27.3802 38.7117 26.4402 39.5117 25.2402 39.5217C24.1402 39.5217 23.1602 38.7217 22.8102 37.2617C22.3302 35.2517 21.8802 33.2117 21.6102 31.1617C21.4302 29.8317 20.7302 29.3117 19.5602 29.0717C17.4602 28.6517 15.3702 28.2117 13.2802 27.7417C12.2702 27.5117 11.4402 27.0217 11.2002 25.8717C10.8902 24.3617 11.5302 23.3117 13.2502 22.8717C15.2802 22.3517 17.3402 21.9317 19.4102 21.5717C20.7802 21.3317 21.4602 20.7317 21.6302 19.2517C21.8602 17.2417 22.3202 15.2517 22.7902 13.2717C23.1702 11.6917 23.9802 11.0217 25.1802 11.0117ZM36.3802 25.4317C36.3802 25.3417 36.3802 25.2417 36.3902 25.1517C35.9602 25.0417 35.5402 24.9217 35.1102 24.8317C33.5002 24.4917 31.8902 24.1817 30.2802 23.8117C28.0802 23.3017 26.8002 21.9417 26.4602 19.6417C26.1802 17.7917 25.7702 15.9617 25.4202 14.1317C25.3102 14.1317 25.2002 14.1317 25.0802 14.1217C24.7302 15.9317 24.2902 17.7317 24.0602 19.5517C23.7402 22.0717 22.2102 23.3117 19.9602 23.9117C19.3202 24.0817 18.6802 24.2017 18.0302 24.3317C16.8402 24.5617 15.6402 24.7817 14.4502 25.0117C14.4502 25.1217 14.4302 25.2317 14.4202 25.3417C14.8602 25.4917 15.2902 25.6917 15.7402 25.7917C17.2202 26.1417 18.7102 26.4717 20.1902 26.7817C22.2102 27.2117 23.4602 28.4117 23.9102 30.4617C24.0302 31.0317 24.1402 31.6017 24.2502 32.1717C24.5302 33.6317 24.8002 35.0917 25.0702 36.5617C25.7302 34.6617 26.1202 32.8117 26.4502 30.9417C26.8502 28.6717 27.9702 27.1917 30.3602 26.7717C32.3702 26.4217 34.3602 25.8917 36.3502 25.4417L36.3802 25.4317Z" fill="#00AFDF"/>
<path d="M14.8002 31.9116C16.9502 31.9116 18.7002 33.6316 18.7002 35.7416C18.7002 37.9116 17.0102 39.6216 14.8702 39.6316C12.8102 39.6416 11.0202 37.8316 11.0002 35.7216C10.9802 33.7016 12.7602 31.9116 14.8002 31.9116ZM13.3902 36.1416C13.8502 36.4916 14.4902 37.2416 14.7302 37.1216C15.3602 36.8216 15.8002 36.1416 16.3202 35.6216C15.8402 35.2516 15.3902 34.6716 14.8602 34.5716C14.0602 34.4216 13.5902 34.9916 13.3802 36.1416H13.3902Z" fill="#00AFDF"/>
<path d="M35.4502 18.6418C34.7202 18.6318 34.4102 17.9718 34.4302 17.1518C34.4502 16.3318 34.1302 16.0218 33.3402 16.0718C32.4702 16.1218 31.8902 15.7318 31.8502 14.8118C31.8102 13.8218 32.4502 13.5118 33.3102 13.5818C34.1902 13.6518 34.5102 13.2618 34.4202 12.4218C34.3202 11.5518 34.7802 11.0318 35.5902 11.0018C36.5002 10.9618 36.9302 11.5918 36.8902 12.4518C36.8502 13.2618 37.1802 13.5318 37.9602 13.5918C38.7702 13.6518 39.5502 13.9318 39.4702 14.9918C39.4002 16.0318 38.6002 16.0818 37.8402 16.0518C36.8902 16.0118 36.9402 16.6718 36.8902 17.2918C36.8302 18.0318 36.7102 18.7418 35.4602 18.6418H35.4502Z" fill="#00AFDF"/>
</svg>
