<svg width="1440" height="184" viewBox="0 0 1440 184" fill="none" xmlns="http://www.w3.org/2000/svg">
<g opacity="0.3">
<path d="M287.46 148.79C292.02 145.37 297.35 146.56 299.84 143.46C302.17 140.56 302.67 136.2 304.3 131.58C305.87 136.07 306.39 140.43 308.7 143.38C311.19 146.55 316.53 145.38 321.12 148.69C310.79 149.15 305.24 153.89 304.49 164.24C303.06 154.41 298.18 148.85 287.46 148.8V148.79Z" fill="#FDC992"/>
<path d="M876.46 148.79C881.02 145.37 886.35 146.56 888.84 143.46C891.17 140.56 891.67 136.2 893.3 131.58C894.87 136.07 895.39 140.43 897.7 143.38C900.19 146.55 905.53 145.38 910.12 148.69C899.79 149.15 894.24 153.89 893.49 164.24C892.06 154.41 887.18 148.85 876.46 148.8V148.79Z" fill="#FDC992"/>
<path d="M110.76 147.21C105.43 150.17 100.26 149.44 97.75 152.54C95.42 155.42 94.95 159.8 93.07 164.01C92.13 154.34 87.13 148.89 76.48 148.75C81.06 145.37 86.4 146.56 88.9 143.42C91.21 140.51 91.71 136.16 93.6 131.94C94.47 141.68 99.63 146.97 110.76 147.22V147.21Z" fill="#FDC992"/>
<path d="M699.76 147.21C694.43 150.17 689.26 149.44 686.75 152.54C684.42 155.42 683.95 159.8 682.07 164.01C681.13 154.34 676.13 148.89 665.48 148.75C670.06 145.37 675.4 146.56 677.9 143.42C680.21 140.51 680.71 136.16 682.6 131.94C683.47 141.68 688.63 146.97 699.76 147.22V147.21Z" fill="#FDC992"/>
<path d="M1290.76 147.21C1285.43 150.17 1280.26 149.44 1277.75 152.54C1275.42 155.42 1274.95 159.8 1273.07 164.01C1272.13 154.34 1267.13 148.89 1256.48 148.75C1261.06 145.37 1266.4 146.56 1268.9 143.42C1271.21 140.51 1271.71 136.16 1273.6 131.94C1274.47 141.68 1279.63 146.97 1290.76 147.22V147.21Z" fill="#FDC992"/>
<path d="M488.22 148.76C477.6 149.02 472.38 154.12 471.42 164.3C470.22 154.31 465.09 148.99 455 147.97C464.81 146.67 470.47 142.02 471.55 132.3C472.9 136.08 473.46 140.51 475.83 143.47C478.3 146.55 483.62 145.41 488.21 148.76H488.22Z" fill="#FDC992"/>
<path d="M1079.22 148.76C1068.6 149.02 1063.38 154.12 1062.42 164.3C1061.22 154.31 1056.09 148.99 1046 147.97C1055.81 146.67 1061.47 142.02 1062.55 132.3C1063.9 136.08 1064.46 140.51 1066.83 143.47C1069.3 146.55 1074.62 145.41 1079.21 148.76H1079.22Z" fill="#FDC992"/>
<path d="M320.67 101.95C311.01 103.36 305.2 107.85 304.51 118.26C303.06 108.48 298.19 102.94 288.04 102.16C297.94 100.93 303.35 96.0596 304.16 85.7896C305.61 95.5596 310.4 101.19 320.68 101.95H320.67Z" fill="#FDC992"/>
<path d="M909.67 101.95C900.01 103.36 894.2 107.85 893.51 118.26C892.06 108.48 887.19 102.94 877.04 102.16C886.94 100.93 892.35 96.0596 893.16 85.7896C894.61 95.5596 899.4 101.19 909.68 101.95H909.67Z" fill="#FDC992"/>
<path d="M93.2797 118.25C92.4697 107.97 86.9697 103.35 77.1997 102.23C87.1297 100.94 92.2997 95.6699 92.9297 85.8799C95.5397 89.9699 94.8397 95.1499 97.9497 97.6699C100.85 100.03 105.25 100.54 109.43 102.41C99.8397 103.27 94.3297 108.11 93.2897 118.26L93.2797 118.25Z" fill="#FDC992"/>
<path d="M682.28 118.25C681.47 107.97 675.97 103.35 666.2 102.23C676.13 100.94 681.3 95.6699 681.93 85.8799C684.54 89.9699 683.84 95.1499 686.95 97.6699C689.85 100.03 694.25 100.54 698.43 102.41C688.84 103.27 683.33 108.11 682.29 118.26L682.28 118.25Z" fill="#FDC992"/>
<path d="M1273.28 118.25C1272.47 107.97 1266.97 103.35 1257.2 102.23C1267.13 100.94 1272.3 95.6699 1272.93 85.8799C1275.54 89.9699 1274.84 95.1499 1277.95 97.6699C1280.85 100.03 1285.25 100.54 1289.43 102.41C1279.84 103.27 1274.33 108.11 1273.29 118.26L1273.28 118.25Z" fill="#FDC992"/>
<path d="M8.80971 85.6699C10.6197 90.6199 11.1797 94.9399 13.5297 97.7799C15.8897 100.63 20.9997 99.5499 25.6397 103.05C15.2497 103.25 10.2897 108.23 8.98972 117.91C7.60972 108.44 3.02971 103.19 -6.55029 103.28C-4.65029 101.01 -4.6803 100.85 -2.2103 100.37C2.9897 99.3599 6.62971 97.0099 7.01971 91.1599C7.10971 89.7499 7.8997 88.3799 8.8197 85.6799L8.80971 85.6699Z" fill="#FDC992"/>
<path d="M597.81 85.6699C599.62 90.6199 600.18 94.9399 602.53 97.7799C604.89 100.63 610 99.5499 614.64 103.05C604.25 103.25 599.29 108.23 597.99 117.91C596.61 108.44 592.03 103.19 582.45 103.28C584.35 101.01 584.32 100.85 586.79 100.37C591.99 99.3599 595.63 97.0099 596.02 91.1599C596.11 89.7499 596.9 88.3799 597.82 85.6799L597.81 85.6699Z" fill="#FDC992"/>
<path d="M1188.81 85.6699C1190.62 90.6199 1191.18 94.9399 1193.53 97.7799C1195.89 100.63 1201 99.5499 1205.64 103.05C1195.25 103.25 1190.29 108.23 1188.99 117.91C1187.61 108.44 1183.03 103.19 1173.45 103.28C1175.35 101.01 1175.32 100.85 1177.79 100.37C1182.99 99.3599 1186.63 97.0099 1187.02 91.1599C1187.11 89.7499 1187.9 88.3799 1188.82 85.6799L1188.81 85.6699Z" fill="#FDC992"/>
<path d="M430.79 117.73C430.12 107.39 423.93 103.64 414.89 102.01C424.26 100.76 429.9 96.4897 429.9 85.9097C433.74 89.9697 432.57 95.0397 435.38 97.7897C438.15 100.49 442.98 99.4597 447.4 103.09C437.15 103.23 432.33 108.35 430.79 117.74V117.73Z" fill="#FDC992"/>
<path d="M1019.79 117.73C1019.12 107.39 1012.93 103.64 1003.89 102.01C1013.26 100.76 1018.9 96.4897 1018.9 85.9097C1022.74 89.9697 1021.57 95.0397 1024.38 97.7897C1027.15 100.49 1031.98 99.4597 1036.4 103.09C1026.15 103.23 1021.33 108.35 1019.79 117.74V117.73Z" fill="#FDC992"/>
<path d="M50.9599 163.67C50.1899 153.4 44.5799 149.18 34.4399 148.81C38.9599 145.37 44.2899 146.56 46.6599 143.55C49.0199 140.54 49.4999 136.06 50.9299 131.84C53.5799 135.75 52.5399 141.01 55.7299 143.48C58.6899 145.77 62.9999 146.3 67.1199 148.1C58.0499 149.29 52.1799 153.67 50.9599 163.67Z" fill="#FDC992"/>
<path d="M639.96 163.67C639.19 153.4 633.58 149.18 623.44 148.81C627.96 145.37 633.29 146.56 635.66 143.55C638.02 140.54 638.5 136.06 639.93 131.84C642.58 135.75 641.54 141.01 644.73 143.48C647.69 145.77 652 146.3 656.12 148.1C647.05 149.29 641.18 153.67 639.96 163.67Z" fill="#FDC992"/>
<path d="M1230.96 163.67C1230.19 153.4 1224.58 149.18 1214.44 148.81C1218.96 145.37 1224.29 146.56 1226.66 143.55C1229.02 140.54 1229.5 136.06 1230.93 131.84C1233.58 135.75 1232.54 141.01 1235.73 143.48C1238.69 145.77 1243 146.3 1247.12 148.1C1238.05 149.29 1232.18 153.67 1230.96 163.67Z" fill="#FDC992"/>
<path d="M487.48 102.01C477.54 103.18 472.37 108.35 471.33 118.41C470.22 108.38 465.38 102.87 454.94 102.25C465.1 101 470.31 95.8897 471.23 85.7397C472.7 95.3297 477.1 101.23 487.48 102.01Z" fill="#FDC992"/>
<path d="M1078.48 102.01C1068.54 103.18 1063.37 108.35 1062.33 118.41C1061.22 108.38 1056.38 102.87 1045.94 102.25C1056.1 101 1061.31 95.8897 1062.23 85.7397C1063.7 95.3297 1068.1 101.23 1078.48 102.01Z" fill="#FDC992"/>
<path d="M219.91 132.11C221.32 141.59 226.01 146.79 235.82 147.66C226.37 149.18 221.09 154.09 219.89 163.81C218.71 153.92 213.55 149.01 203.84 147.94C213.57 146.9 218.68 141.93 219.91 132.11Z" fill="#FDC992"/>
<path d="M808.91 132.11C810.32 141.59 815.01 146.79 824.82 147.66C815.37 149.18 810.09 154.09 808.89 163.81C807.71 153.92 802.55 149.01 792.84 147.94C802.57 146.9 807.68 141.93 808.91 132.11Z" fill="#FDC992"/>
<path d="M1399.91 132.11C1401.32 141.59 1406.01 146.79 1415.82 147.66C1406.37 149.18 1401.09 154.09 1399.89 163.81C1398.71 153.92 1393.55 149.01 1383.84 147.94C1393.57 146.9 1398.68 141.93 1399.91 132.11Z" fill="#FDC992"/>
<path d="M388.76 117.66C387.5 107.9 382.24 103.23 371.78 103C378.34 99.3996 386.17 91.7096 389.58 85.5396C389.93 96.0596 395.1 100.99 404.92 102.12C395.4 103.34 389.8 107.78 388.75 117.66H388.76Z" fill="#FDC992"/>
<path d="M977.76 117.66C976.5 107.9 971.24 103.23 960.78 103C967.34 99.3996 975.17 91.7096 978.58 85.5396C978.93 96.0596 984.1 100.99 993.92 102.12C984.4 103.34 978.8 107.78 977.75 117.66H977.76Z" fill="#FDC992"/>
<path d="M571.07 102.4C567.38 103.72 562.83 104.14 560.26 106.62C557.84 108.96 557.51 113.46 555.54 117.64C554.16 108.67 549.83 102.9 539.76 102.32C549.09 100.65 554.91 96.3999 555.6 86.1899C557.54 95.1299 560.99 101.79 571.85 100.71C571.59 101.27 571.33 101.84 571.07 102.4Z" fill="#FDC992"/>
<path d="M1162.07 102.4C1158.38 103.72 1153.83 104.14 1151.26 106.62C1148.84 108.96 1148.51 113.46 1146.54 117.64C1145.16 108.67 1140.83 102.9 1130.76 102.32C1140.09 100.65 1145.91 96.3999 1146.6 86.1899C1148.54 95.1299 1151.99 101.79 1162.85 100.71C1162.59 101.27 1162.33 101.84 1162.07 102.4Z" fill="#FDC992"/>
<path d="M135.54 85.75C136.69 95.72 141.56 101.11 151.77 102.03C141.71 103.13 136.63 108.34 136.45 119.18C133.22 114.38 133.87 109.79 131.37 106.86C128.74 103.78 124 104.45 118.74 101.57C129.44 100.71 134.84 95.83 135.53 85.75H135.54Z" fill="#FDC992"/>
<path d="M724.54 85.75C725.69 95.72 730.56 101.11 740.77 102.03C730.71 103.13 725.63 108.34 725.45 119.18C722.22 114.38 722.87 109.79 720.37 106.86C717.74 103.78 713 104.45 707.74 101.57C718.44 100.71 723.84 95.83 724.53 85.75H724.54Z" fill="#FDC992"/>
<path d="M1315.54 85.75C1316.69 95.72 1321.56 101.11 1331.77 102.03C1321.71 103.13 1316.63 108.34 1316.45 119.18C1313.22 114.38 1313.87 109.79 1311.37 106.86C1308.74 103.78 1304 104.45 1298.74 101.57C1309.44 100.71 1314.84 95.83 1315.53 85.75H1315.54Z" fill="#FDC992"/>
<path d="M513.75 163.64C512.35 153.86 507.21 148.87 497.8 147.71C501.53 146.41 505.74 145.79 508.86 143.62C512.13 141.34 510.76 136.07 514.53 131.64C514.61 142.04 519.89 146.79 529.59 147.81C520.4 149.34 514.52 153.42 513.75 163.64Z" fill="#FDC992"/>
<path d="M1104.75 163.64C1103.35 153.86 1098.21 148.87 1088.8 147.71C1092.53 146.41 1096.74 145.79 1099.86 143.62C1103.13 141.34 1101.76 136.07 1105.53 131.64C1105.61 142.04 1110.89 146.79 1120.59 147.81C1111.4 149.34 1105.52 153.42 1104.75 163.64Z" fill="#FDC992"/>
<path d="M8.88983 163.8C7.63983 154.1 2.72982 148.93 -7.68018 148.79C-0.380176 144.61 6.00982 138.29 9.70982 131.35C10.2598 141.76 15.1998 146.92 25.0498 147.84C15.1298 148.94 10.1998 154.11 8.88983 163.8Z" fill="#FDC992"/>
<path d="M597.89 163.8C596.64 154.1 591.73 148.93 581.32 148.79C588.62 144.61 595.01 138.29 598.71 131.35C599.26 141.76 604.2 146.92 614.05 147.84C604.13 148.94 599.2 154.11 597.89 163.8Z" fill="#FDC992"/>
<path d="M1188.89 163.8C1187.64 154.1 1182.73 148.93 1172.32 148.79C1179.62 144.61 1186.01 138.29 1189.71 131.35C1190.26 141.76 1195.2 146.92 1205.05 147.84C1195.13 148.94 1190.2 154.11 1188.89 163.8Z" fill="#FDC992"/>
<path d="M151.7 148.76C142.22 149.17 136.61 153.42 136.7 164.08C132.81 160.06 134.14 154.62 131.16 152.37C128.05 150.03 123.57 149.5 119.32 147.62C128.53 146.72 134.44 142.48 134.62 132.31C135.37 133.04 150.97 148.05 151.71 148.76H151.7Z" fill="#FDC992"/>
<path d="M740.7 148.76C731.22 149.17 725.61 153.42 725.7 164.08C721.81 160.06 723.14 154.62 720.16 152.37C717.05 150.03 712.57 149.5 708.32 147.62C717.53 146.72 723.44 142.48 723.62 132.31C724.37 133.04 739.97 148.05 740.71 148.76H740.7Z" fill="#FDC992"/>
<path d="M1331.7 148.76C1322.22 149.17 1316.61 153.42 1316.7 164.08C1312.81 160.06 1314.14 154.62 1311.16 152.37C1308.05 150.03 1303.57 149.5 1299.32 147.62C1308.53 146.72 1314.44 142.48 1314.62 132.31C1315.37 133.04 1330.97 148.05 1331.71 148.76H1331.7Z" fill="#FDC992"/>
<path d="M373.36 147.97C377.62 145.63 386.62 136.85 389.59 131.48C389.93 142 395.32 146.7 404.76 147.97C395.52 149.41 389.58 153.39 389.87 164.25C386.07 160 387.18 154.96 384.33 152.25C381.49 149.55 376.69 150.48 373.36 147.97Z" fill="#FDC992"/>
<path d="M962.36 147.97C966.62 145.63 975.62 136.85 978.59 131.48C978.93 142 984.32 146.7 993.76 147.97C984.52 149.41 978.58 153.39 978.87 164.25C975.07 160 976.18 154.96 973.33 152.25C970.49 149.55 965.69 150.48 962.36 147.97Z" fill="#FDC992"/>
<path d="M51.8901 85.8599C52.5301 95.7699 57.2601 101.01 67.0901 102.14C57.0101 103.18 52.1801 108.46 51.1901 118.41C50.0801 108.4 45.0101 103.05 35.5601 101.74C39.2901 100.48 43.5501 99.9699 46.5901 97.7699C49.7401 95.4999 48.4601 90.2699 51.8901 85.8599Z" fill="#FDC992"/>
<path d="M640.89 85.8599C641.53 95.7699 646.26 101.01 656.09 102.14C646.01 103.18 641.18 108.46 640.19 118.41C639.08 108.4 634.01 103.05 624.56 101.74C628.29 100.48 632.55 99.9699 635.59 97.7699C638.74 95.4999 637.46 90.2699 640.89 85.8599Z" fill="#FDC992"/>
<path d="M1231.89 85.8599C1232.53 95.7699 1237.26 101.01 1247.09 102.14C1237.01 103.18 1232.18 108.46 1231.19 118.41C1230.08 108.4 1225.01 103.05 1215.56 101.74C1219.29 100.48 1223.55 99.9699 1226.59 97.7699C1229.74 95.4999 1228.46 90.2699 1231.89 85.8599Z" fill="#FDC992"/>
<path d="M346.85 86.3299C348.17 90.1699 348.53 94.9499 351.09 97.5899C353.54 100.12 358.28 100.44 362.45 102.31C353.01 103.36 347.4 108.01 346.75 118.32C345.27 108.81 340.9 102.93 330.54 102.22C340.5 100.76 345.91 95.8899 345.52 85.4199C345.96 85.7199 346.4 86.0199 346.84 86.3199L346.85 86.3299Z" fill="#FDC992"/>
<path d="M935.85 86.3299C937.17 90.1699 937.53 94.9499 940.09 97.5899C942.54 100.12 947.28 100.44 951.45 102.31C942.01 103.36 936.4 108.01 935.75 118.32C934.27 108.81 929.9 102.93 919.54 102.22C929.5 100.76 934.91 95.8899 934.52 85.4199C934.96 85.7199 935.4 86.0199 935.84 86.3199L935.85 86.3299Z" fill="#FDC992"/>
<path d="M204.01 102.08C213.62 100.95 218.87 96.3498 218.83 85.7598C222.57 90.0098 221.48 95.0298 224.32 97.7498C227.14 100.45 231.95 99.4998 235.55 102.26C231.59 103.73 227.09 104.22 224.54 106.71C222.1 109.09 221.7 113.55 219.65 117.7C218.44 108.55 214.05 102.85 204.01 102.08Z" fill="#FDC992"/>
<path d="M793.01 102.08C802.62 100.95 807.87 96.3498 807.83 85.7598C811.57 90.0098 810.48 95.0298 813.32 97.7498C816.14 100.45 820.95 99.4998 824.55 102.26C820.59 103.73 816.09 104.22 813.54 106.71C811.1 109.09 810.7 113.55 808.65 117.7C807.44 108.55 803.05 102.85 793.01 102.08Z" fill="#FDC992"/>
<path d="M1384.01 102.08C1393.62 100.95 1398.87 96.3498 1398.83 85.7598C1402.57 90.0098 1401.48 95.0298 1404.32 97.7498C1407.14 100.45 1411.95 99.4998 1415.55 102.26C1411.59 103.73 1407.09 104.22 1404.54 106.71C1402.1 109.09 1401.7 113.55 1399.65 117.7C1398.44 108.55 1394.05 102.85 1384.01 102.08Z" fill="#FDC992"/>
<path d="M446.85 148.71C437.3 149.15 432.11 153.95 430.6 163.17C429.36 159.54 429.06 154.95 426.61 152.54C424.05 150.02 419.43 149.61 415.2 147.7C424.2 146.56 429.98 142.28 429.91 131.4C433.64 135.93 432.45 141.08 435.47 143.37C438.34 145.55 442.41 146.16 445.96 147.45C446.26 147.87 446.56 148.28 446.86 148.7L446.85 148.71Z" fill="#FDC992"/>
<path d="M1035.85 148.71C1026.3 149.15 1021.11 153.95 1019.6 163.17C1018.36 159.54 1018.06 154.95 1015.61 152.54C1013.05 150.02 1008.43 149.61 1004.2 147.7C1013.2 146.56 1018.98 142.28 1018.91 131.4C1022.64 135.93 1021.45 141.08 1024.47 143.37C1027.34 145.55 1031.41 146.16 1034.96 147.45C1035.26 147.87 1035.56 148.28 1035.86 148.7L1035.85 148.71Z" fill="#FDC992"/>
<path d="M513.75 117.67C512.18 108.41 507.51 103.16 497.24 103.11C501.49 99.3696 506.27 100.47 509.06 97.6796C511.88 94.8496 511.04 90.1496 514.58 85.3296C514.58 96.2396 519.87 100.97 529.64 101.88C520.61 103.55 514.47 107.39 513.75 117.67Z" fill="#FDC992"/>
<path d="M1104.75 117.67C1103.18 108.41 1098.51 103.16 1088.24 103.11C1092.49 99.3696 1097.27 100.47 1100.06 97.6796C1102.88 94.8496 1102.04 90.1496 1105.58 85.3296C1105.58 96.2396 1110.87 100.97 1120.64 101.88C1111.61 103.55 1105.47 107.39 1104.75 117.67Z" fill="#FDC992"/>
<path d="M329.74 146.95C340.73 146.8 345.41 141.36 346.57 131.54C347.45 141.62 352.65 146.87 362.69 147.95C353.52 149.47 347.23 153.05 347.99 164.38C343.82 160.03 344.97 154.97 342.2 152.26C339.43 149.55 334.64 150.4 329.74 146.95Z" fill="#FDC992"/>
<path d="M918.74 146.95C929.73 146.8 934.41 141.36 935.57 131.54C936.45 141.62 941.65 146.87 951.69 147.95C942.52 149.47 936.23 153.05 936.99 164.38C932.82 160.03 933.97 154.97 931.2 152.26C928.43 149.55 923.64 150.4 918.74 146.95Z" fill="#FDC992"/>
<path d="M262.17 131.69C263.26 141.73 268.39 146.91 278.42 147.76C269.33 149.4 263.07 153.2 263.17 164.03C259.22 159.88 260.82 154.42 257.49 152.16C254.39 150.06 250.25 149.5 246.21 147.63C256 146.9 261.13 141.69 262.17 131.7V131.69Z" fill="#FDC992"/>
<path d="M851.17 131.69C852.26 141.73 857.39 146.91 867.42 147.76C858.33 149.4 852.07 153.2 852.17 164.03C848.22 159.88 849.82 154.42 846.49 152.16C843.39 150.06 839.25 149.5 835.21 147.63C845 146.9 850.13 141.69 851.17 131.7V131.69Z" fill="#FDC992"/>
<path d="M1442.17 131.69C1443.26 141.73 1448.39 146.91 1458.42 147.76C1449.33 149.4 1443.07 153.2 1443.17 164.03C1439.22 159.88 1440.82 154.42 1437.49 152.16C1434.39 150.06 1430.25 149.5 1426.21 147.63C1436 146.9 1441.13 141.69 1442.17 131.7V131.69Z" fill="#FDC992"/>
<path d="M246.08 102.01C255.69 100.93 261.05 96.4296 261.97 86.3696C263.44 95.8396 268.49 100.85 277.99 102.21C268.01 103.29 263.1 108.47 262.32 118.42C261.07 108.43 256.12 103.06 246.08 102.01Z" fill="#FDC992"/>
<path d="M835.08 102.01C844.69 100.93 850.05 96.4296 850.97 86.3696C852.44 95.8396 857.49 100.85 866.99 102.21C857.01 103.29 852.1 108.47 851.32 118.42C850.07 108.43 845.12 103.06 835.08 102.01Z" fill="#FDC992"/>
<path d="M1426.08 102.01C1435.69 100.93 1441.05 96.4296 1441.97 86.3696C1443.44 95.8396 1448.49 100.85 1457.99 102.21C1448.01 103.29 1443.1 108.47 1442.32 118.42C1441.07 108.43 1436.12 103.06 1426.08 102.01Z" fill="#FDC992"/>
<path d="M177.77 132.13C178.87 142.06 184.24 146.78 194.62 147.29C189.61 150.21 184.6 149.42 182.18 152.45C179.96 155.23 179.5 159.42 178.08 163.52C175.23 159.97 176.1 155.2 173.51 152.46C170.78 149.57 166.1 150.23 161.99 148.08C170.62 146.25 176.98 142.36 177.77 132.14V132.13Z" fill="#FDC992"/>
<path d="M766.77 132.13C767.87 142.06 773.24 146.78 783.62 147.29C778.61 150.21 773.6 149.42 771.18 152.45C768.96 155.23 768.5 159.42 767.08 163.52C764.23 159.97 765.1 155.2 762.51 152.46C759.78 149.57 755.1 150.23 750.99 148.08C759.62 146.25 765.98 142.36 766.77 132.14V132.13Z" fill="#FDC992"/>
<path d="M1357.77 132.13C1358.87 142.06 1364.24 146.78 1374.62 147.29C1369.61 150.21 1364.6 149.42 1362.18 152.45C1359.96 155.23 1359.5 159.42 1358.08 163.52C1355.23 159.97 1356.1 155.2 1353.51 152.46C1350.78 149.57 1346.1 150.23 1341.99 148.08C1350.62 146.25 1356.98 142.36 1357.77 132.14V132.13Z" fill="#FDC992"/>
<path d="M540.1 148.25C544.15 145.67 548.83 146.15 551.54 143.37C554.09 140.75 553.37 136.15 556.53 131.45C557.06 141.79 561.96 146.97 572.37 147.13C565.45 150.98 558.54 157.85 555.07 164.41C554.4 154.21 549.63 148.88 540.09 148.25H540.1Z" fill="#FDC992"/>
<path d="M1131.1 148.25C1135.15 145.67 1139.83 146.15 1142.54 143.37C1145.09 140.75 1144.37 136.15 1147.53 131.45C1148.06 141.79 1152.96 146.97 1163.37 147.13C1156.45 150.98 1149.54 157.85 1146.07 164.41C1145.4 154.21 1140.63 148.88 1131.09 148.25H1131.1Z" fill="#FDC992"/>
<path d="M177.76 86.3999C178.99 95.9399 183.8 101.02 193.6 101.82C184.89 103.88 178.38 107.42 178.86 118.6C175.24 114.01 176.22 108.98 173.45 106.62C170.8 104.36 166.65 103.86 162.81 101.9C171.86 100.66 176.58 95.6599 177.76 86.3999Z" fill="#FDC992"/>
<path d="M766.76 86.3999C767.99 95.9399 772.8 101.02 782.6 101.82C773.89 103.88 767.38 107.42 767.86 118.6C764.24 114.01 765.22 108.98 762.45 106.62C759.8 104.36 755.65 103.86 751.81 101.9C760.86 100.66 765.58 95.6599 766.76 86.3999Z" fill="#FDC992"/>
<path d="M1357.76 86.3999C1358.99 95.9399 1363.8 101.02 1373.6 101.82C1364.89 103.88 1358.38 107.42 1358.86 118.6C1355.24 114.01 1356.22 108.98 1353.45 106.62C1350.8 104.36 1346.65 103.86 1342.81 101.9C1351.86 100.66 1356.58 95.6599 1357.76 86.3999Z" fill="#FDC992"/>
<path d="M431 157.2V138.75C432.12 146.52 439.48 144.76 444.54 147.56C440.61 151.81 431.34 148.62 431 157.19V157.2Z" fill="#FDC992"/>
<path d="M1022 157.2V138.75C1023.12 146.52 1030.48 144.76 1035.54 147.56C1031.61 151.81 1022.34 148.62 1022 157.19V157.2Z" fill="#FDC992"/>
<path d="M365.15 174.55C369.45 173.44 371.89 170.88 373.27 166.7C374.35 171.15 376.95 173.64 381.44 174.44C377.34 176.05 373.36 177.42 373.58 183.14C372.08 178.53 369.87 175.53 365.15 174.55Z" fill="#FDC992"/>
<path d="M954.15 174.55C958.45 173.44 960.89 170.88 962.27 166.7C963.35 171.15 965.95 173.64 970.44 174.44C966.34 176.05 962.36 177.42 962.58 183.14C961.08 178.53 958.87 175.53 954.15 174.55Z" fill="#FDC992"/>
<path d="M204.01 165.65C206.09 170.33 207.41 174.14 212.67 174.11C208.35 175.8 205.26 178.09 204.39 182.88C203.3 178.34 200.92 175.45 196.11 174.59C200.5 173.55 203.3 171.25 204.02 165.65H204.01Z" fill="#FDC992"/>
<path d="M793.01 165.65C795.09 170.33 796.41 174.14 801.67 174.11C797.35 175.8 794.26 178.09 793.39 182.88C792.3 178.34 789.92 175.45 785.11 174.59C789.5 173.55 792.3 171.25 793.02 165.65H793.01Z" fill="#FDC992"/>
<path d="M1384.01 165.65C1386.09 170.33 1387.41 174.14 1392.67 174.11C1388.35 175.8 1385.26 178.09 1384.39 182.88C1383.3 178.34 1380.92 175.45 1376.11 174.59C1380.5 173.55 1383.3 171.25 1384.02 165.65H1384.01Z" fill="#FDC992"/>
<path d="M296.79 82.7899C292.44 84.2999 289.39 86.2599 289.81 92.4399C286.75 88.1499 286.94 82.8399 280.79 83.4699C285.08 81.5999 287.72 79.1099 288.57 73.4399C290.34 78.5799 291.83 82.2099 296.79 82.7899Z" fill="#FDC992"/>
<path d="M885.79 82.7899C881.44 84.2999 878.39 86.2599 878.81 92.4399C875.75 88.1499 875.94 82.8399 869.79 83.4699C874.08 81.5999 876.72 79.1099 877.57 73.4399C879.34 78.5799 880.83 82.2099 885.79 82.7899Z" fill="#FDC992"/>
<path d="M-14.8201 174.59C-10.4101 173.58 -7.75008 171.33 -6.80008 166.74C-5.36008 170.9 -2.71008 173.37 2.69992 174.35C-2.33008 176.15 -6.23008 177.48 -6.35008 182.94C-7.83008 178.47 -9.90008 175.26 -14.8301 174.59H-14.8201Z" fill="#FDC992"/>
<path d="M574.18 174.59C578.59 173.58 581.25 171.33 582.2 166.74C583.64 170.9 586.29 173.37 591.7 174.35C586.67 176.15 582.77 177.48 582.65 182.94C581.17 178.47 579.1 175.26 574.17 174.59H574.18Z" fill="#FDC992"/>
<path d="M1165.18 174.59C1169.59 173.58 1172.25 171.33 1173.2 166.74C1174.64 170.9 1177.29 173.37 1182.7 174.35C1177.67 176.15 1173.77 177.48 1173.65 182.94C1172.17 178.47 1170.1 175.26 1165.17 174.59H1165.18Z" fill="#FDC992"/>
<path d="M464.05 82.4699C460.01 84.4699 457.32 87.4499 455.98 91.4099C453.97 87.6899 453.4 82.7999 447.31 83.4299C451.65 81.6099 454.94 79.5899 455.47 73.3999C457.56 78.4699 458.58 82.6699 464.05 82.4699Z" fill="#FDC992"/>
<path d="M1055.05 82.4699C1051.01 84.4699 1048.32 87.4499 1046.98 91.4099C1044.97 87.6899 1044.4 82.7999 1038.31 83.4299C1042.65 81.6099 1045.94 79.5899 1046.47 73.3999C1048.56 78.4699 1049.58 82.6699 1055.05 82.4699Z" fill="#FDC992"/>
<path d="M415.32 182.9C414.21 178.41 412.31 175.16 406.98 174.93C410.98 173.25 414.54 171.72 415.1 166.71C416.67 170.81 419.2 173.41 423.5 174.47C418.86 175.53 416.48 178.5 415.31 182.9H415.32Z" fill="#FDC992"/>
<path d="M1004.32 182.9C1003.21 178.41 1001.31 175.16 995.98 174.93C999.98 173.25 1003.54 171.72 1004.1 166.71C1005.67 170.81 1008.2 173.41 1012.5 174.47C1007.86 175.53 1005.48 178.5 1004.31 182.9H1004.32Z" fill="#FDC992"/>
<path d="M204.53 91.0801C203.19 86.7501 200.77 83.9501 196.22 82.9101C200.52 81.7501 203.41 79.4701 204.4 74.8501C205.47 79.2401 207.86 81.9601 212.43 82.8101C208.13 84.1101 205.37 86.5201 204.53 91.0801Z" fill="#FDC992"/>
<path d="M793.53 91.0801C792.19 86.7501 789.77 83.9501 785.22 82.9101C789.52 81.7501 792.41 79.4701 793.4 74.8501C794.47 79.2401 796.86 81.9601 801.43 82.8101C797.13 84.1101 794.37 86.5201 793.53 91.0801Z" fill="#FDC992"/>
<path d="M1384.53 91.0801C1383.19 86.7501 1380.77 83.9501 1376.22 82.9101C1380.52 81.7501 1383.41 79.4701 1384.4 74.8501C1385.47 79.2401 1387.86 81.9601 1392.43 82.8101C1388.13 84.1101 1385.37 86.5201 1384.53 91.0801Z" fill="#FDC992"/>
<path d="M407.2 82.8601C411.71 81.8801 414.24 79.2501 415.45 74.8901C416.66 78.9501 418.43 82.1001 423.27 82.5201C419.76 84.5201 415.96 85.9501 415.78 90.9701C413.9 87.0901 411.83 83.8101 407.2 82.8701V82.8601Z" fill="#FDC992"/>
<path d="M996.2 82.8601C1000.71 81.8801 1003.24 79.2501 1004.45 74.8901C1005.66 78.9501 1007.43 82.1001 1012.27 82.5201C1008.76 84.5201 1004.96 85.9501 1004.78 90.9701C1002.9 87.0901 1000.83 83.8101 996.2 82.8701V82.8601Z" fill="#FDC992"/>
<path d="M119.84 182.22C118.82 177.86 116.32 175.63 111.21 174.96C115.41 172.76 119.66 171.86 119.48 166.51C121.84 170 122.69 174.1 127.84 174.23C123.87 176 121.09 178.15 119.84 182.22Z" fill="#FDC992"/>
<path d="M708.84 182.22C707.82 177.86 705.32 175.63 700.21 174.96C704.41 172.76 708.66 171.86 708.48 166.51C710.84 170 711.69 174.1 716.84 174.23C712.87 176 710.09 178.15 708.84 182.22Z" fill="#FDC992"/>
<path d="M1299.84 182.22C1298.82 177.86 1296.32 175.63 1291.21 174.96C1295.41 172.76 1299.66 171.86 1299.48 166.51C1301.84 170 1302.69 174.1 1307.84 174.23C1303.87 176 1301.09 178.15 1299.84 182.22Z" fill="#FDC992"/>
<path d="M373.03 74.9998C374.46 79.0998 376.55 81.9897 381.27 82.6097C377.26 84.2897 374.19 86.5497 373.09 91.0797C372.28 86.4397 369.4 84.1597 365.2 82.7697C369.42 81.7097 372.32 79.7097 373.03 74.9897V74.9998Z" fill="#FDC992"/>
<path d="M962.03 74.9998C963.46 79.0998 965.55 81.9897 970.27 82.6097C966.26 84.2897 963.19 86.5497 962.09 91.0797C961.28 86.4397 958.4 84.1597 954.2 82.7697C958.42 81.7097 961.32 79.7097 962.03 74.9897V74.9998Z" fill="#FDC992"/>
<path d="M330.71 74.8901C332.48 78.7401 334.05 82.3202 339.21 82.5302C335.36 84.3502 331.48 85.7902 331.32 91.0002C329.48 87.3302 328.01 83.6201 321.86 83.2901C326.73 81.2401 330.38 79.8401 330.72 74.8901H330.71Z" fill="#FDC992"/>
<path d="M919.71 74.8901C921.48 78.7401 923.05 82.3202 928.21 82.5302C924.36 84.3502 920.48 85.7902 920.32 91.0002C918.48 87.3302 917.01 83.6201 910.86 83.2901C915.73 81.2401 919.38 79.8401 919.72 74.8901H919.71Z" fill="#FDC992"/>
<path d="M-6.63002 73.5601C-5.13002 78.7801 -3.92002 82.53 1.50998 82.35C-2.41002 84.41 -5.86002 86.19 -6.49002 90.91C-7.84002 86.68 -10.29 83.92 -14.77 82.86C-10.35 81.84 -7.69002 79.3001 -6.63002 73.5601Z" fill="#FDC992"/>
<path d="M582.37 73.5601C583.87 78.7801 585.08 82.53 590.51 82.35C586.59 84.41 583.14 86.19 582.51 90.91C581.16 86.68 578.71 83.92 574.23 82.86C578.65 81.84 581.31 79.3001 582.37 73.5601Z" fill="#FDC992"/>
<path d="M1173.37 73.5601C1174.87 78.7801 1176.08 82.53 1181.51 82.35C1177.59 84.41 1174.14 86.19 1173.51 90.91C1172.16 86.68 1169.71 83.92 1165.23 82.86C1169.65 81.84 1172.31 79.3001 1173.37 73.5601Z" fill="#FDC992"/>
<path d="M85.5501 174.35C82.0701 176.28 78.4401 177.56 77.9801 182.47C76.8001 177.97 73.7201 176.11 68.8101 174.4C74.1401 173.31 76.7601 171.03 77.5801 165.25C79.2501 170.45 80.9101 173.74 85.5501 174.35Z" fill="#FDC992"/>
<path d="M674.55 174.35C671.07 176.28 667.44 177.56 666.98 182.47C665.8 177.97 662.72 176.11 657.81 174.4C663.14 173.31 665.76 171.03 666.58 165.25C668.25 170.45 669.91 173.74 674.55 174.35Z" fill="#FDC992"/>
<path d="M1265.55 174.35C1262.07 176.28 1258.44 177.56 1257.98 182.47C1256.8 177.97 1253.72 176.11 1248.81 174.4C1254.14 173.31 1256.76 171.03 1257.58 165.25C1259.25 170.45 1260.91 173.74 1265.55 174.35Z" fill="#FDC992"/>
<path d="M498.05 182.24C496.81 178 494.21 175.7 489 174.71C493.63 172.9 497.46 171.8 497.21 165.52C499.82 169.87 500.88 173.86 507.03 173.86C502.43 176.29 498.79 177.69 498.05 182.24Z" fill="#FDC992"/>
<path d="M1089.05 182.24C1087.81 178 1085.21 175.7 1080 174.71C1084.63 172.9 1088.46 171.8 1088.21 165.52C1090.82 169.87 1091.88 173.86 1098.03 173.86C1093.43 176.29 1089.79 177.69 1089.05 182.24Z" fill="#FDC992"/>
<path d="M463.85 174.25C459.88 176.02 456.69 177.74 456 182.28C454.28 178.66 452.31 175.64 446.55 174.84C451.75 173.07 455.04 171.38 455.28 165.29C457.46 170.22 458.67 174.15 463.85 174.25Z" fill="#FDC992"/>
<path d="M1054.85 174.25C1050.88 176.02 1047.69 177.74 1047 182.28C1045.28 178.66 1043.31 175.64 1037.55 174.84C1042.75 173.07 1046.04 171.38 1046.28 165.29C1048.46 170.22 1049.67 174.15 1054.85 174.25Z" fill="#FDC992"/>
<path d="M254.49 174.44C250.19 175.8 247.34 178.07 246.72 182.85C245.47 178.75 243.39 175.77 238.94 174.65C242.99 173.31 245.36 170.72 246.66 166.7C247.75 170.93 250.14 173.46 254.49 174.44Z" fill="#FDC992"/>
<path d="M843.49 174.44C839.19 175.8 836.34 178.07 835.72 182.85C834.47 178.75 832.39 175.77 827.94 174.65C831.99 173.31 834.36 170.72 835.66 166.7C836.75 170.93 839.14 173.46 843.49 174.44Z" fill="#FDC992"/>
<path d="M1434.49 174.44C1430.19 175.8 1427.34 178.07 1426.72 182.85C1425.47 178.75 1423.39 175.77 1418.94 174.65C1422.99 173.31 1425.36 170.72 1426.66 166.7C1427.75 170.93 1430.14 173.46 1434.49 174.44Z" fill="#FDC992"/>
<path d="M280.96 174.6C285.33 173.35 287.87 171.14 288.47 166.62C290.42 170.21 291.54 174.1 296.7 174.06C293.32 176.35 289.56 177.63 288.99 182.28C287.39 178.49 285.31 175.56 280.96 174.6Z" fill="#FDC992"/>
<path d="M869.96 174.6C874.33 173.35 876.87 171.14 877.47 166.62C879.42 170.21 880.54 174.1 885.7 174.06C882.32 176.35 878.56 177.63 877.99 182.28C876.39 178.49 874.31 175.56 869.96 174.6Z" fill="#FDC992"/>
<path d="M338.66 174.51C334.72 175.88 332.2 178.29 330.92 182.29C329.59 178.29 327.46 175.49 322.03 174.92C326.33 172.77 330.56 172 330.49 166.79C332.72 169.98 334.16 173.68 338.65 174.51H338.66Z" fill="#FDC992"/>
<path d="M927.66 174.51C923.72 175.88 921.2 178.29 919.92 182.29C918.59 178.29 916.46 175.49 911.03 174.92C915.33 172.77 919.56 172 919.49 166.79C921.72 169.98 923.16 173.68 927.65 174.51H927.66Z" fill="#FDC992"/>
<path d="M78.1401 91.17C75.9201 87.72 75.8101 83.05 69.8101 83.45C74.0601 81.57 76.7601 79.1501 77.5101 73.5601C79.4401 78.4301 80.6501 82.31 85.7301 82.64C81.5401 84.41 78.2101 86.15 78.1401 91.17Z" fill="#FDC992"/>
<path d="M667.14 91.17C664.92 87.72 664.81 83.05 658.81 83.45C663.06 81.57 665.76 79.1501 666.51 73.5601C668.44 78.4301 669.65 82.31 674.73 82.64C670.54 84.41 667.21 86.15 667.14 91.17Z" fill="#FDC992"/>
<path d="M1258.14 91.17C1255.92 87.72 1255.81 83.05 1249.81 83.45C1254.06 81.57 1256.76 79.1501 1257.51 73.5601C1259.44 78.4301 1260.65 82.31 1265.73 82.64C1261.54 84.41 1258.21 86.15 1258.14 91.17Z" fill="#FDC992"/>
<path d="M35.6 90.9099C34.67 86.2299 31.81 83.9499 27.29 82.9399C31.47 81.6999 34.8 79.9299 35.34 74.8999C36.84 78.9499 39.18 81.7799 43.48 82.8899C39.24 84.0799 36.71 86.5399 35.6 90.9099Z" fill="#FDC992"/>
<path d="M624.6 90.9099C623.67 86.2299 620.81 83.9499 616.29 82.9399C620.47 81.6999 623.8 79.9299 624.34 74.8999C625.84 78.9499 628.18 81.7799 632.48 82.8899C628.24 84.0799 625.71 86.5399 624.6 90.9099Z" fill="#FDC992"/>
<path d="M1215.6 90.9099C1214.67 86.2299 1211.81 83.9499 1207.29 82.9399C1211.47 81.6999 1214.8 79.9299 1215.34 74.8999C1216.84 78.9499 1219.18 81.7799 1223.48 82.8899C1219.24 84.0799 1216.71 86.5399 1215.6 90.9099Z" fill="#FDC992"/>
<path d="M540 74.8501C541.37 79.3901 543.88 81.8501 548.4 82.8101C543.85 83.9101 541.14 86.4601 540.22 91.1401C539.24 86.5601 536.51 84.1101 532.24 82.8301C536.33 81.5901 539.47 79.7501 539.99 74.8501H540Z" fill="#FDC992"/>
<path d="M1131 74.8501C1132.37 79.3901 1134.88 81.8501 1139.4 82.8101C1134.85 83.9101 1132.14 86.4601 1131.22 91.1401C1130.24 86.5601 1127.51 84.1101 1123.24 82.8301C1127.33 81.5901 1130.47 79.7501 1130.99 74.8501H1131Z" fill="#FDC992"/>
<path d="M498.16 90.89C496.82 86.77 494.61 83.98 489.39 83.18C493.66 81.11 497.81 80.13 497.42 74.71C499.6 78.54 500.92 82.6599 506.38 82.6599C502.04 84.1799 498.81 86.03 498.16 90.9V90.89Z" fill="#FDC992"/>
<path d="M1089.16 90.89C1087.82 86.77 1085.61 83.98 1080.39 83.18C1084.66 81.11 1088.81 80.13 1088.42 74.71C1090.6 78.54 1091.92 82.6599 1097.38 82.6599C1093.04 84.1799 1089.81 86.03 1089.16 90.9V90.89Z" fill="#FDC992"/>
<path d="M431.06 92.8398C431.86 101.08 440.02 98.7098 444.5 102.05C440.41 105.77 431.84 102.86 431.06 111.2V92.8398Z" fill="#FDC992"/>
<path d="M1022.06 92.8398C1022.86 101.08 1031.02 98.7098 1035.5 102.05C1031.41 105.77 1022.84 102.86 1022.06 111.2V92.8398Z" fill="#FDC992"/>
<path d="M128.09 83.1799C123.08 83.7599 121.23 86.8099 120.18 92.2699C118.73 87.0199 116.68 83.8999 110.83 82.9899C116.02 81.2899 119.61 79.8599 119.59 74.6099C121.03 79.2899 123.79 81.9099 128.08 83.1898L128.09 83.1799Z" fill="#FDC992"/>
<path d="M717.09 83.1799C712.08 83.7599 710.23 86.8099 709.18 92.2699C707.73 87.0199 705.68 83.8999 699.83 82.9899C705.02 81.2899 708.61 79.8599 708.59 74.6099C710.03 79.2899 712.79 81.9099 717.08 83.1898L717.09 83.1799Z" fill="#FDC992"/>
<path d="M1308.09 83.1799C1303.08 83.7599 1301.23 86.8099 1300.18 92.2699C1298.73 87.0199 1296.68 83.8999 1290.83 82.9899C1296.02 81.2899 1299.61 79.8599 1299.59 74.6099C1301.03 79.2899 1303.79 81.9099 1308.08 83.1898L1308.09 83.1799Z" fill="#FDC992"/>
<path d="M548.89 174.94C543.37 175.57 541.61 178.71 539.97 182.37C539.09 177.87 536.39 175.69 531.2 174.88C535.58 172.8 539.79 171.92 539.32 165.74C541.94 170.126 545.13 173.19 548.89 174.93V174.94Z" fill="#FDC992"/>
<path d="M1139.89 174.94C1134.37 175.57 1132.61 178.71 1130.97 182.37C1130.09 177.87 1127.39 175.69 1122.2 174.88C1126.58 172.8 1130.79 171.92 1130.32 165.74C1132.94 170.126 1136.13 173.19 1139.89 174.93V174.94Z" fill="#FDC992"/>
<path d="M238.35 83.0497C242.75 81.8897 245.5 79.4597 246.49 74.9097C247.8 79.0197 250.12 81.7197 254.41 82.7497C250.35 84.1497 247.64 86.4397 246.79 90.9197C245.41 86.6897 243.12 83.6897 238.35 83.0397V83.0497Z" fill="#FDC992"/>
<path d="M827.35 83.0497C831.75 81.8897 834.5 79.4597 835.49 74.9097C836.8 79.0197 839.12 81.7197 843.41 82.7497C839.35 84.1497 836.64 86.4397 835.79 90.9197C834.41 86.6897 832.12 83.6897 827.35 83.0397V83.0497Z" fill="#FDC992"/>
<path d="M1418.35 83.0497C1422.75 81.8897 1425.5 79.4597 1426.49 74.9097C1427.8 79.0197 1430.12 81.7197 1434.41 82.7497C1430.35 84.1497 1427.64 86.4397 1426.79 90.9197C1425.41 86.6897 1423.12 83.6897 1418.35 83.0397V83.0497Z" fill="#FDC992"/>
<path d="M27.9199 174.54C32.1499 173.43 34.2599 170.59 35.7899 165.21C36.8799 170.84 38.8299 173.83 43.6599 174.06C40.3199 176.4 35.7099 176.88 35.9999 182.52C34.3799 178.3 31.8999 175.85 27.9199 174.54Z" fill="#FDC992"/>
<path d="M616.92 174.54C621.15 173.43 623.26 170.59 624.79 165.21C625.88 170.84 627.83 173.83 632.66 174.06C629.32 176.4 624.71 176.88 625 182.52C623.38 178.3 620.9 175.85 616.92 174.54Z" fill="#FDC992"/>
<path d="M1207.92 174.54C1212.15 173.43 1214.26 170.59 1215.79 165.21C1216.88 170.84 1218.83 173.83 1223.66 174.06C1220.32 176.4 1215.71 176.88 1216 182.52C1214.38 178.3 1211.9 175.85 1207.92 174.54Z" fill="#FDC992"/>
<path d="M407.34 128.9C410.96 127.35 414.09 126.04 414.66 121.09C417.18 124.8 418.91 128.12 423.42 128.43C419.41 130.22 415.99 131.94 415.67 136.99C414.26 132.67 412.11 129.55 407.33 128.9H407.34Z" fill="#FDC992"/>
<path d="M996.34 128.9C999.96 127.35 1003.09 126.04 1003.66 121.09C1006.18 124.8 1007.91 128.12 1012.42 128.43C1008.41 130.22 1004.99 131.94 1004.67 136.99C1003.26 132.67 1001.11 129.55 996.33 128.9H996.34Z" fill="#FDC992"/>
<path d="M548.16 128.9C543.21 129.46 541.54 132.91 540.1 137C539.24 132.48 536.85 129.77 530.96 129.11C535.7 127.29 539.03 125.9 539.81 121.47C541.03 125.94 544.61 127.17 548.16 128.9Z" fill="#FDC992"/>
<path d="M1139.16 128.9C1134.21 129.46 1132.54 132.91 1131.1 137C1130.24 132.48 1127.85 129.77 1121.96 129.11C1126.7 127.29 1130.03 125.9 1130.81 121.47C1132.03 125.94 1135.61 127.17 1139.16 128.9Z" fill="#FDC992"/>
<path d="M43.47 128.66C38.98 129.86 36.87 132.89 35.51 138.36C34.44 132.55 32.24 129.64 27.04 129.25C29.71 126.82 34.17 127.54 34.35 123.1C34.39 122.03 36.27 122.33 36.59 123.32C37.63 126.58 40.48 127.46 43.48 128.66H43.47Z" fill="#FDC992"/>
<path d="M632.47 128.66C627.98 129.86 625.87 132.89 624.51 138.36C623.44 132.55 621.24 129.64 616.04 129.25C618.71 126.82 623.17 127.54 623.35 123.1C623.39 122.03 625.27 122.33 625.59 123.32C626.63 126.58 629.48 127.46 632.48 128.66H632.47Z" fill="#FDC992"/>
<path d="M1223.47 128.66C1218.98 129.86 1216.87 132.89 1215.51 138.36C1214.44 132.55 1212.24 129.64 1207.04 129.25C1209.71 126.82 1214.17 127.54 1214.35 123.1C1214.39 122.03 1216.27 122.33 1216.59 123.32C1217.63 126.58 1220.48 127.46 1223.48 128.66H1223.47Z" fill="#FDC992"/>
<path d="M331.31 121.2C331.27 126.86 335.81 126.79 339.76 128.75C335.05 130.08 331.42 131.76 331.4 137.11C329.4 133.3 328.2 129.35 322.33 129.51C326.47 127.063 329.46 124.29 331.3 121.19L331.31 121.2Z" fill="#FDC992"/>
<path d="M920.31 121.2C920.27 126.86 924.81 126.79 928.76 128.75C924.05 130.08 920.42 131.76 920.4 137.11C918.4 133.3 917.2 129.35 911.33 129.51C915.47 127.063 918.46 124.29 920.3 121.19L920.31 121.2Z" fill="#FDC992"/>
<path d="M365.32 128.84C369.06 127.43 371.92 125.75 372.73 121.46C374.03 125.84 377.52 127.19 382.37 128.81C376.92 129.86 373.98 132.03 373.46 136.86C371.85 132.93 370.13 129.46 365.32 128.84Z" fill="#FDC992"/>
<path d="M954.32 128.84C958.06 127.43 960.92 125.75 961.73 121.46C963.03 125.84 966.52 127.19 971.37 128.81C965.92 129.86 962.98 132.03 962.46 136.86C960.85 132.93 959.13 129.46 954.32 128.84Z" fill="#FDC992"/>
<path d="M129.06 128.91C124.16 129.91 121.09 131.76 120.3 137.65C118.48 132.67 116.4 129.73 110.88 129.04C115.24 127.27 118.55 126.29 119.88 122.38C120.79 127.13 125 126.74 129.06 128.91Z" fill="#FDC992"/>
<path d="M718.06 128.91C713.16 129.91 710.09 131.76 709.3 137.65C707.48 132.67 705.4 129.73 699.88 129.04C704.24 127.27 707.55 126.29 708.88 122.38C709.79 127.13 714 126.74 718.06 128.91Z" fill="#FDC992"/>
<path d="M1309.06 128.91C1304.16 129.91 1301.09 131.76 1300.3 137.65C1298.48 132.67 1296.4 129.73 1290.88 129.04C1295.24 127.27 1298.55 126.29 1299.88 122.38C1300.79 127.13 1305 126.74 1309.06 128.91Z" fill="#FDC992"/>
<path d="M-7.06012 121.75C-5.73012 125.96 -2.36013 127.18 2.50987 128.73C-3.23013 129.68 -5.48013 132.68 -6.71013 136.95C-7.54013 132.3 -10.0201 129.68 -15.6201 129.08C-11.4601 127.11 -7.62013 126.35 -7.05013 121.75H-7.06012Z" fill="#FDC992"/>
<path d="M581.94 121.75C583.27 125.96 586.64 127.18 591.51 128.73C585.77 129.68 583.52 132.68 582.29 136.95C581.46 132.3 578.98 129.68 573.38 129.08C577.54 127.11 581.38 126.35 581.95 121.75H581.94Z" fill="#FDC992"/>
<path d="M1172.94 121.75C1174.27 125.96 1177.64 127.18 1182.51 128.73C1176.77 129.68 1174.52 132.68 1173.29 136.95C1172.46 132.3 1169.98 129.68 1164.38 129.08C1168.54 127.11 1172.38 126.35 1172.95 121.75H1172.94Z" fill="#FDC992"/>
<path d="M168.55 83.2398C164.14 84.0998 163.62 87.8098 162.13 92.4498C160.86 86.9598 159.27 83.5798 154.04 83.0898C158.47 81.7898 161.39 79.6498 161.65 74.0698C163.96 77.9298 164.66 81.5998 168.55 83.2398Z" fill="#FDC992"/>
<path d="M757.55 83.2398C753.14 84.0998 752.62 87.8098 751.13 92.4498C749.86 86.9598 748.27 83.5798 743.04 83.0898C747.47 81.7898 750.39 79.6498 750.65 74.0698C752.96 77.9298 753.66 81.5998 757.55 83.2398Z" fill="#FDC992"/>
<path d="M1348.55 83.2398C1344.14 84.0998 1343.62 87.8098 1342.13 92.4498C1340.86 86.9598 1339.27 83.5798 1334.04 83.0898C1338.47 81.7898 1341.39 79.6498 1341.65 74.0698C1343.96 77.9298 1344.66 81.5998 1348.55 83.2398Z" fill="#FDC992"/>
<path d="M195.19 129.22C199.15 126.89 203.26 127.16 203 121.82C206.02 125.11 208.29 127.94 212.39 128.47C208.42 130.28 204.74 131.79 204.64 137.06C203.19 132.65 201.19 129.54 195.19 129.22Z" fill="#FDC992"/>
<path d="M784.19 129.22C788.15 126.89 792.26 127.16 792 121.82C795.02 125.11 797.29 127.94 801.39 128.47C797.42 130.28 793.74 131.79 793.64 137.06C792.19 132.65 790.19 129.54 784.19 129.22Z" fill="#FDC992"/>
<path d="M1375.19 129.22C1379.15 126.89 1383.26 127.16 1383 121.82C1386.02 125.11 1388.29 127.94 1392.39 128.47C1388.42 130.28 1384.74 131.79 1384.64 137.06C1383.19 132.65 1381.19 129.54 1375.19 129.22Z" fill="#FDC992"/>
<path d="M254.28 128.91C249.77 129.79 247.5 132.43 246.72 136.93C245.43 132.53 243.11 129.57 237.75 129.11C240.78 126.9 245.11 127.72 245.23 123.25C245.26 122.32 246.81 122.81 247.16 123.46C248.69 126.23 251.34 127.42 254.27 128.92L254.28 128.91Z" fill="#FDC992"/>
<path d="M843.28 128.91C838.77 129.79 836.5 132.43 835.72 136.93C834.43 132.53 832.11 129.57 826.75 129.11C829.78 126.9 834.11 127.72 834.23 123.25C834.26 122.32 835.81 122.81 836.16 123.46C837.69 126.23 840.34 127.42 843.27 128.92L843.28 128.91Z" fill="#FDC992"/>
<path d="M1434.28 128.91C1429.77 129.79 1427.5 132.43 1426.72 136.93C1425.43 132.53 1423.11 129.57 1417.75 129.11C1420.78 126.9 1425.11 127.72 1425.23 123.25C1425.26 122.32 1426.81 122.81 1427.16 123.46C1428.69 126.23 1431.34 127.42 1434.27 128.92L1434.28 128.91Z" fill="#FDC992"/>
<path d="M506.18 128.64C501.88 129.76 499.07 131.89 498.1 136.5C496.68 132.36 494.28 129.95 489.67 129.12C493 127.05 496.64 126.47 497.57 120.93C499.04 126.61 502.47 127.57 506.18 128.64Z" fill="#FDC992"/>
<path d="M1097.18 128.64C1092.88 129.76 1090.07 131.89 1089.1 136.5C1087.68 132.36 1085.28 129.95 1080.67 129.12C1084 127.05 1087.64 126.47 1088.57 120.93C1090.04 126.61 1093.47 127.57 1097.18 128.64Z" fill="#FDC992"/>
<path d="M169.27 174.92C165.33 175.97 163.08 178.04 162.67 182.38C160.91 178.23 158.41 175.61 154.11 174.57C158.22 173.47 161.03 171.33 161.75 165.95C163.96 170.12 164.69 174.22 169.27 174.92Z" fill="#FDC992"/>
<path d="M758.27 174.92C754.33 175.97 752.08 178.04 751.67 182.38C749.91 178.23 747.41 175.61 743.11 174.57C747.22 173.47 750.03 171.33 750.75 165.95C752.96 170.12 753.69 174.22 758.27 174.92Z" fill="#FDC992"/>
<path d="M1349.27 174.92C1345.33 175.97 1343.08 178.04 1342.67 182.38C1340.91 178.23 1338.41 175.61 1334.11 174.57C1338.22 173.47 1341.03 171.33 1341.75 165.95C1343.96 170.12 1344.69 174.22 1349.27 174.92Z" fill="#FDC992"/>
<path d="M296.73 128.78C292.96 130.22 289.78 131.98 288.86 136.35C287.64 131.88 284.54 129.92 279.81 128.89C283.08 127.11 286.9 127.38 287.56 123.42C287.67 122.76 289.39 122.4 289.46 123.33C289.75 127.76 294.15 126.55 296.73 128.78Z" fill="#FDC992"/>
<path d="M885.73 128.78C881.96 130.22 878.78 131.98 877.86 136.35C876.64 131.88 873.54 129.92 868.81 128.89C872.08 127.11 875.9 127.38 876.56 123.42C876.67 122.76 878.39 122.4 878.46 123.33C878.75 127.76 883.15 126.55 885.73 128.78Z" fill="#FDC992"/>
<path d="M463.67 129.14C459.53 130.04 456.97 132.25 455.84 136.33C454.45 132.43 452.01 129.93 447.25 128.75C450.52 127.06 453.98 127.32 454.4 123.62C454.49 122.82 456.5 122.2 456.58 123.48C456.86 127.83 461.21 126.45 463.67 129.14Z" fill="#FDC992"/>
<path d="M1054.67 129.14C1050.53 130.04 1047.97 132.25 1046.84 136.33C1045.45 132.43 1043.01 129.93 1038.25 128.75C1041.52 127.06 1044.98 127.32 1045.4 123.62C1045.49 122.82 1047.5 122.2 1047.58 123.48C1047.86 127.83 1052.21 126.45 1054.67 129.14Z" fill="#FDC992"/>
<path d="M77.77 136.27C76.87 131.46 73.35 130.08 69 128.9C71.99 127.02 75.96 127.45 76.57 123.41C76.67 122.74 78.43 122.39 78.47 123.31C78.69 127.74 83.36 126.46 85.56 129.04C81.66 130.11 78.84 132.06 77.77 136.26V136.27Z" fill="#FDC992"/>
<path d="M666.77 136.27C665.87 131.46 662.35 130.08 658 128.9C660.99 127.02 664.96 127.45 665.57 123.41C665.67 122.74 667.43 122.39 667.47 123.31C667.69 127.74 672.36 126.46 674.56 129.04C670.66 130.11 667.84 132.06 666.77 136.26V136.27Z" fill="#FDC992"/>
<path d="M1257.77 136.27C1256.87 131.46 1253.35 130.08 1249 128.9C1251.99 127.02 1255.96 127.45 1256.57 123.41C1256.67 122.74 1258.43 122.39 1258.47 123.31C1258.69 127.74 1263.36 126.46 1265.56 129.04C1261.66 130.11 1258.84 132.06 1257.77 136.26V136.27Z" fill="#FDC992"/>
<path d="M154.32 128.8C158.17 127.48 160.88 125.68 161.57 120.14C163.39 125.06 165.33 127.93 169.36 128.96C164.61 129.59 163.63 133.34 162 138.35C161.12 132.64 158.98 129.66 154.32 128.8Z" fill="#FDC992"/>
<path d="M743.32 128.8C747.17 127.48 749.88 125.68 750.57 120.14C752.39 125.06 754.33 127.93 758.36 128.96C753.61 129.59 752.63 133.34 751 138.35C750.12 132.64 747.98 129.66 743.32 128.8Z" fill="#FDC992"/>
<path d="M1334.32 128.8C1338.17 127.48 1340.88 125.68 1341.57 120.14C1343.39 125.06 1345.33 127.93 1349.36 128.96C1344.61 129.59 1343.63 133.34 1342 138.35C1341.12 132.64 1338.98 129.66 1334.32 128.8Z" fill="#FDC992"/>
</g>
</svg>
