<svg width="56" height="57" viewBox="0 0 56 57" fill="none" xmlns="http://www.w3.org/2000/svg">
<g filter="url(#filter0_d_190_599)">
<circle cx="28" cy="28.6724" r="20" fill="white"/>
</g>
<path d="M40.4998 19.9709V20.9424C40.3759 20.9343 40.4264 21.0289 40.4199 21.0843C40.358 21.5733 40.3042 22.0624 40.2341 22.5515C40.1705 22.9949 40.0874 23.4334 40.0189 23.8768C39.9928 24.0415 39.9064 24.2061 39.9113 24.3593C39.9194 24.6169 39.851 24.8582 39.8298 25.1076C39.8086 25.3717 39.7255 25.6309 39.6945 25.8966C39.6651 26.1558 39.595 26.4101 39.5853 26.6677C39.5755 26.9188 39.4923 27.1535 39.4679 27.4013C39.4027 28.0371 39.2771 28.6647 39.1973 29.3005C39.0978 30.0879 38.9332 30.8671 38.8321 31.6561C38.7783 32.0669 38.7147 32.4761 38.6316 32.8804C38.568 33.1885 38.5501 33.5015 38.4832 33.808C38.3773 34.297 38.3137 34.7942 38.2355 35.2882C38.1572 35.7821 38.0855 36.2794 38.0023 36.7733C37.9306 37.2069 37.885 37.6438 37.7937 38.0775C37.691 38.5665 37.6404 39.067 37.5589 39.5626C37.4888 39.9897 37.3877 40.4119 37.3421 40.8423C37.3046 41.2107 37.2329 41.5677 37.091 41.9068C36.8726 42.4301 36.5792 42.8882 35.9793 43.0414C35.9352 43.0528 35.9026 43.0675 35.9222 43.1213H34.8691C34.874 43.0072 34.7713 43.0251 34.7126 43.0072C34.3866 42.9029 34.0556 42.8148 33.7475 42.6583C33.265 42.4105 32.7938 42.1448 32.3407 41.8449C31.6576 41.3917 30.968 40.9482 30.2833 40.4967C29.3558 39.8854 28.4184 39.2871 27.5071 38.6529C26.7621 38.1345 26.0041 37.6341 25.3129 37.0423C25.083 36.845 24.8271 36.6771 24.6054 36.4717C24.2174 36.1147 23.8946 35.7121 23.9826 35.1366C24.0413 34.7584 24.2549 34.4568 24.5304 34.1976C25.4677 33.3222 26.4181 32.4582 27.3408 31.5648C27.9 31.0236 28.495 30.5231 29.0395 29.9623C29.4862 29.501 29.9736 29.0755 30.4447 28.637C31.1392 27.9898 31.7913 27.297 32.4531 26.6172C32.7971 26.265 33.1003 25.8819 33.3025 25.4239C33.3612 25.2902 33.3612 25.1826 33.2813 25.0783C33.1884 24.9576 33.0726 24.8647 32.9014 24.925C32.6846 25.0016 32.4597 25.0489 32.2543 25.1663C31.9119 25.3603 31.5256 25.4858 31.2093 25.714C30.6387 26.1265 30.0437 26.5031 29.4715 26.9155C28.3075 27.7551 27.0963 28.5229 25.9095 29.3298C25.7987 29.4048 25.6601 29.4472 25.5688 29.5287C25.2623 29.801 24.9216 30.0161 24.5695 30.2199C24.2483 30.4058 23.9419 30.6193 23.6354 30.8231C23.3892 30.9877 23.1463 31.1703 22.9034 31.348C22.6719 31.5176 22.4046 31.6414 22.1682 31.7963C21.9155 31.961 21.6808 32.1696 21.4265 32.3408C21.2048 32.4892 20.9521 32.5951 20.745 32.7598C20.3065 33.1103 19.8321 33.376 19.2779 33.4787C19.0301 33.5243 18.7741 33.5341 18.5263 33.5798C18.3454 33.6124 18.1628 33.6335 17.9851 33.6075C16.6907 33.4151 15.4583 33.0027 14.2226 32.5902C13.714 32.4207 13.2119 32.2365 12.6902 32.0995C12.3528 32.0115 12.0186 31.8697 11.6942 31.7246C11.6176 31.6904 11.5572 31.6186 11.492 31.5713C11.3486 31.467 11.2932 31.304 11.1758 31.1866C11.1758 30.9975 11.1758 30.8068 11.1758 30.6177C11.2606 30.6209 11.2883 30.5508 11.3225 30.497C11.5149 30.1938 11.7887 29.9819 12.0985 29.8091C12.524 29.5711 12.9772 29.3999 13.4222 29.2092C14.1167 28.9109 14.8307 28.6549 15.5252 28.355C16.5326 27.9213 17.5466 27.5073 18.5687 27.1144C19.1638 26.8862 19.7376 26.609 20.3326 26.3824C20.926 26.1558 21.5096 25.8917 22.0997 25.6505C22.8936 25.3244 23.6729 24.9593 24.4912 24.6935C24.7504 24.6088 24.9754 24.449 25.2297 24.3577C25.7318 24.1784 26.1981 23.9159 26.7116 23.7545C27.3343 23.5605 27.8837 23.1612 28.5439 23.0487C28.5684 23.0438 28.5961 23.0275 28.6108 23.0079C28.6972 22.8922 28.8276 22.8612 28.9531 22.8123C29.3541 22.6542 29.7649 22.5156 30.1529 22.3265C30.8295 21.9972 31.5321 21.7347 32.2216 21.4413C32.908 21.1479 33.6041 20.8756 34.2936 20.5887C34.7631 20.3931 35.2294 20.1893 35.6989 19.992C36.1896 19.7866 36.677 19.5731 37.1775 19.3905C37.466 19.2862 37.7497 19.1688 38.03 19.0465C38.198 18.9748 38.3968 19.0547 38.5501 18.9324C38.6854 19.009 38.7865 18.8672 38.9218 18.8802C39.1761 18.9047 39.4353 18.8917 39.6929 18.8933C39.8249 18.9911 39.9895 19.04 40.1053 19.1623C40.2928 19.3612 40.477 19.5829 40.4004 19.8681C40.3563 20.0295 40.4411 19.9676 40.4998 19.9806V19.9709Z" fill="#00AFDF"/>
<defs>
<filter id="filter0_d_190_599" x="0" y="0.672363" width="56" height="56" filterUnits="userSpaceOnUse" color-interpolation-filters="sRGB">
<feFlood flood-opacity="0" result="BackgroundImageFix"/>
<feColorMatrix in="SourceAlpha" type="matrix" values="0 0 0 0 0 0 0 0 0 0 0 0 0 0 0 0 0 0 127 0" result="hardAlpha"/>
<feOffset/>
<feGaussianBlur stdDeviation="4"/>
<feComposite in2="hardAlpha" operator="out"/>
<feColorMatrix type="matrix" values="0 0 0 0 0 0 0 0 0 0 0 0 0 0 0 0 0 0 0.14 0"/>
<feBlend mode="normal" in2="BackgroundImageFix" result="effect1_dropShadow_190_599"/>
<feBlend mode="normal" in="SourceGraphic" in2="effect1_dropShadow_190_599" result="shape"/>
</filter>
</defs>
</svg>
