<svg width="56" height="57" viewBox="0 0 56 57" fill="none" xmlns="http://www.w3.org/2000/svg">
<g filter="url(#filter0_d_190_595)">
<circle cx="28" cy="28.6724" r="20" fill="white"/>
</g>
<path d="M39.0651 40.1481C39.1015 40.2827 39.0128 40.2669 38.9274 40.2669C36.668 40.2669 34.4087 40.2669 32.1494 40.2669C32.1415 40.2431 32.1399 40.2162 32.1256 40.1956C31.8264 39.7666 31.524 39.3407 31.2279 38.91C30.5677 37.9521 29.9122 36.9895 29.2504 36.0332C28.7628 35.3302 28.2925 34.6178 27.7795 33.9322C27.4977 33.5554 27.265 33.139 26.9958 32.7479C26.6697 32.2745 26.3451 31.8011 26.0205 31.3261C25.9018 31.1536 25.8495 31.1536 25.7134 31.3182C25.5756 31.4845 25.4395 31.6523 25.2954 31.8138C24.5402 32.664 23.8245 33.5475 23.0551 34.3866C22.5943 34.8885 22.1684 35.4205 21.7267 35.9382C21.1551 36.6048 20.5836 37.2697 20.0104 37.9331C19.4974 38.5253 18.9781 39.1111 18.4731 39.7111C18.3227 39.89 18.1327 40.0405 18.0424 40.2669H16C16.0016 40.24 16.0047 40.213 16.0063 40.1861C16.0507 40.1481 16.0997 40.1133 16.1377 40.069C16.6776 39.4277 17.2128 38.7833 17.7543 38.1453C17.9696 37.8904 18.2023 37.6497 18.4208 37.398C18.7264 37.0449 19.0161 36.6792 19.3296 36.334C19.613 36.0237 19.8632 35.688 20.1513 35.3809C20.4237 35.0927 20.658 34.7713 20.9176 34.4705C21.1504 34.2014 21.399 33.9449 21.6333 33.6773C21.8629 33.4145 22.0718 33.1311 22.3109 32.8777C22.7321 32.4328 23.0978 31.942 23.511 31.4908C23.9021 31.0633 24.2504 30.5994 24.6526 30.1814C24.9439 29.879 24.9407 29.8743 24.7381 29.5117C24.7159 29.4721 24.6985 29.4294 24.6716 29.393C24.0984 28.5586 23.5269 27.7242 22.9521 26.8898C22.3679 26.0396 21.7821 25.1894 21.1963 24.3407C20.6469 23.5444 20.0943 22.7496 19.5465 21.9516C18.6298 20.6153 17.7147 19.2774 16.8027 17.9364C16.5383 17.5485 16.2502 17.178 16.0332 16.76C16.0459 16.6191 16.1552 16.6904 16.2153 16.6904C18.3686 16.6856 20.5234 16.6872 22.6767 16.6872C22.7416 16.6872 22.8065 16.692 22.873 16.6951C23.1485 17.1036 23.4192 17.5153 23.6979 17.9206C24.1523 18.5824 24.6162 19.2394 25.0706 19.9012C25.8479 21.0349 26.6222 22.1717 27.398 23.3053C27.8175 23.918 28.2371 24.5291 28.6583 25.1403C28.8134 25.3651 28.8039 25.3556 28.9717 25.153C29.2836 24.7777 29.6098 24.4152 29.9265 24.0431C30.2811 23.6283 30.6294 23.2071 30.9872 22.7971C31.4195 22.3015 31.8549 21.8075 32.2855 21.3088C33.5474 19.8506 34.8013 18.3861 36.0569 16.9231C36.1091 16.863 36.2136 16.836 36.1915 16.7252C36.2374 16.6555 36.3102 16.6872 36.3688 16.6872C36.8485 16.6856 37.3282 16.6872 37.808 16.6872C37.9299 16.6872 38.0518 16.6745 38.1658 16.73C38.1515 16.7854 38.1531 16.8582 38.1183 16.8946C37.9188 17.1004 37.7621 17.3395 37.5626 17.5469C37.2997 17.8224 37.0607 18.1217 36.8232 18.4193C36.6965 18.5792 36.5192 18.6916 36.4084 18.8547C36.1946 19.1666 35.9413 19.4468 35.688 19.7208C35.2637 20.1799 34.8773 20.6691 34.4657 21.1378C34.035 21.6286 33.6155 22.1321 33.1943 22.634C32.0892 23.9513 30.9477 25.24 29.8188 26.5367C29.7475 26.6191 29.7333 26.6824 29.7966 26.7774C30.2241 27.4186 30.6738 28.044 31.0981 28.6884C31.5936 29.4405 32.132 30.164 32.6386 30.9097C32.9727 31.4021 33.3067 31.8945 33.6503 32.3806C34.0715 32.9775 34.4784 33.5855 34.8932 34.1871C35.1576 34.5718 35.4252 34.955 35.6896 35.3413C36.7646 36.9024 37.8381 38.4635 38.9147 40.023C38.9511 40.0753 38.9606 40.1687 39.0635 40.145L39.0651 40.1481ZM20.2859 18.2166C20.2859 18.2166 20.2859 18.2166 20.2859 18.2182C19.9059 18.2182 19.5259 18.2135 19.146 18.2214C19.032 18.223 18.8689 18.1549 18.8166 18.2515C18.7612 18.3544 18.9148 18.4462 18.9781 18.5396C19.8901 19.8569 20.7957 21.1789 21.7251 22.4836C22.2935 23.2799 22.854 24.0827 23.4145 24.8838C24.081 25.8338 24.7365 26.7932 25.411 27.7384C25.9968 28.5602 26.5525 29.4009 27.1431 30.2178C27.5436 30.7736 27.922 31.3451 28.3194 31.9024C28.6472 32.3632 28.9765 32.8239 29.3011 33.2846C29.6272 33.7454 29.9423 34.2156 30.2653 34.6795C30.9429 35.6485 31.619 36.6158 32.2966 37.5848C32.5484 37.9442 32.8033 38.3004 33.0518 38.6614C33.1294 38.7754 33.2228 38.8182 33.3637 38.8166C34.195 38.8103 35.0278 38.8166 35.859 38.8071C35.9524 38.8071 36.0838 38.9227 36.1392 38.7849C36.1851 38.6709 36.0759 38.568 36.0205 38.4667C36.0141 38.4556 36.0046 38.4461 35.9967 38.435C35.6595 37.96 35.3207 37.4866 34.9866 37.0101C34.282 36.0047 33.5822 34.9946 32.8793 33.9892C32.4819 33.4208 32.0813 32.854 31.6839 32.2872C30.9113 31.1836 30.1465 30.0754 29.3644 28.9781C28.8023 28.1897 28.2434 27.398 27.6972 26.5985C27.474 26.2723 27.2238 25.9588 27.0132 25.6279C26.6174 25.0026 26.1662 24.4199 25.7593 23.804C25.4173 23.2863 25.0516 22.786 24.6953 22.2793C23.8024 21.0032 22.9062 19.7303 22.018 18.451C21.9009 18.2816 21.7615 18.2119 21.5604 18.2151C21.1345 18.2214 20.7086 18.2166 20.2843 18.2166H20.2859Z" fill="#00AFDF"/>
<defs>
<filter id="filter0_d_190_595" x="0" y="0.672363" width="56" height="56" filterUnits="userSpaceOnUse" color-interpolation-filters="sRGB">
<feFlood flood-opacity="0" result="BackgroundImageFix"/>
<feColorMatrix in="SourceAlpha" type="matrix" values="0 0 0 0 0 0 0 0 0 0 0 0 0 0 0 0 0 0 127 0" result="hardAlpha"/>
<feOffset/>
<feGaussianBlur stdDeviation="4"/>
<feComposite in2="hardAlpha" operator="out"/>
<feColorMatrix type="matrix" values="0 0 0 0 0 0 0 0 0 0 0 0 0 0 0 0 0 0 0.14 0"/>
<feBlend mode="normal" in2="BackgroundImageFix" result="effect1_dropShadow_190_595"/>
<feBlend mode="normal" in="SourceGraphic" in2="effect1_dropShadow_190_595" result="shape"/>
</filter>
</defs>
</svg>
